<?xml version="1.0" encoding="UTF-8"?>
<svg id="PRINT" xmlns="http://www.w3.org/2000/svg" xmlns:xlink="http://www.w3.org/1999/xlink" version="1.1" viewBox="0 0 841.89 595.28">
  <defs>
    <style>
      .st0, .st1, .st2, .st3, .st4 {
        fill: none;
      }

      .st5 {
        filter: url(#drop-shadow-1);
      }

      .st6 {
        filter: url(#drop-shadow-3);
      }

      .st7 {
        filter: url(#drop-shadow-2);
      }

      .st8 {
        filter: url(#drop-shadow-6);
      }

      .st9 {
        filter: url(#drop-shadow-7);
      }

      .st10 {
        filter: url(#drop-shadow-8);
      }

      .st11 {
        filter: url(#drop-shadow-5);
      }

      .st12 {
        filter: url(#drop-shadow-4);
      }

      .st13 {
        font-size: 17px;
      }

      .st13, .st14 {
        font-family: Poppins, sans-serif;
        font-weight: 400;
      }

      .st15 {
        fill: url(#linear-gradient2);
      }

      .st16 {
        fill: url(#linear-gradient4);
      }

      .st1, .st2, .st3 {
        stroke-miterlimit: 10;
      }

      .st1 {
        stroke: url(#Gradiente_sem_nome_1312);
        stroke-width: 2px;
      }

      .st17 {
        fill: #de561f;
      }

      .st18 {
        fill: url(#linear-gradient);
      }

      .st19 {
        font-size: 14.14px;
        letter-spacing: .1em;
      }

      .st19, .st14 {
        fill: #46576c;
      }

      .st19, .st20 {
        font-family: Poppins, sans-serif;
        font-weight: 600;
      }

      .st21 {
        fill: url(#Gradiente_sem_nome_131);
      }

      .st22 {
        fill: #3a3a3a;
      }

      .st14 {
        display: none;
        font-size: 5.96px;
        letter-spacing: .05em;
      }

      .st2 {
        stroke: url(#linear-gradient1);
        stroke-width: 3px;
      }

      .st3 {
        stroke: url(#linear-gradient3);
        stroke-width: 3px;
      }

      .st23 {
        fill: #fff;
      }

      .st24 {
        fill: #ff5512;
      }

      .st25 {
        fill: url(#Degradado_sin_nombre_122);
      }

      .st4 {
        stroke: #46576c;
        stroke-linecap: round;
        stroke-linejoin: round;
      }

      .st26 {
        fill: #84765e;
      }

      .st20 {
        fill: #a17f35;
        font-size: 8.25px;
        letter-spacing: .15em;
      }

      .st27 {
        fill: #333;
      }

      .st28 {
        fill: url(#Gradiente_sem_nome_1311);
      }

      .st29 {
        clip-path: url(#clippath);
      }

      /* Carga horária / data line */
      .st-info {
        font-size: 13px;
        font-family: Poppins, sans-serif;
        font-weight: 600;
        fill: #a17f35;
        letter-spacing: .05em;
      }
      .st-cert-intro {
        font-family: Poppins, sans-serif;
        font-size: 11px;
        font-weight: 600;
        fill: #46576c;
        letter-spacing: .18em;
        text-transform: uppercase;
      }
      .st-cert-name {
        font-family: Poppins, sans-serif;
        font-size: 26px;
        font-weight: 700;
        fill: #1a1a1a;
        letter-spacing: .01em;
      }
      .st-cert-tagline {
        font-family: Poppins, sans-serif;
        font-size: 13px;
        font-style: italic;
        font-weight: 400;
        fill: #46576c;
      }
    </style>
    <linearGradient id="Degradado_sin_nombre_122" data-name="Degradado sin nombre 122" x1="-3345.12" y1="3051.46" x2="-4092.05" y2="2304.53" gradientTransform="translate(4139.5316 -2380.3574)" gradientUnits="userSpaceOnUse">
      <stop offset="0" stop-color="#fff"/>
      <stop offset="1" stop-color="#e2e4e9"/>
    </linearGradient>
    <clipPath id="clippath">
      <rect class="st0" x="-14.17" y="-14.17" width="870.24" height="623.63" transform="translate(841.89 595.28) rotate(-180)"/>
    </clipPath>
    <filter id="drop-shadow-1" x="-56.87" y="29.35" width="957.84" height="614.4" filterUnits="userSpaceOnUse">
      <feOffset dx="0" dy="-8.5"/>
      <feGaussianBlur result="blur" stdDeviation="14.17"/>
      <feFlood flood-color="#bdbfc6" flood-opacity="1"/>
      <feComposite in2="blur" operator="in"/>
      <feComposite in="SourceGraphic"/>
    </filter>
    <filter id="drop-shadow-2" x="363.68" y="57.74" width="511.44" height="563.28" filterUnits="userSpaceOnUse">
      <feOffset dx="0" dy="-5.67"/>
      <feGaussianBlur result="blur1" stdDeviation="5.67"/>
      <feFlood flood-color="#576482" flood-opacity="1"/>
      <feComposite in2="blur1" operator="in"/>
      <feComposite in="SourceGraphic"/>
    </filter>
    <linearGradient id="linear-gradient" x1="987.18" y1="240.32" x2="440.41" y2="683.08" gradientUnits="userSpaceOnUse">
      <stop offset=".1" stop-color="#d65d16"/>
      <stop offset=".22" stop-color="#d04e12"/>
      <stop offset=".45" stop-color="#eed231"/>
      <stop offset=".58" stop-color="#b51f09"/>
      <stop offset=".78" stop-color="#df882b"/>
      <stop offset=".98" stop-color="#e7a028"/>
    </linearGradient>
    <linearGradient id="Gradiente_sem_nome_131" data-name="Gradiente sem nome 131" x1="563.29" y1="711.51" x2="909.26" y2="112.29" gradientUnits="userSpaceOnUse">
      <stop offset=".1" stop-color="#d65d16"/>
      <stop offset=".22" stop-color="#d04e12"/>
      <stop offset=".45" stop-color="#eed231"/>
      <stop offset=".58" stop-color="#b51f09"/>
      <stop offset=".78" stop-color="#df882b"/>
      <stop offset=".98" stop-color="#e7a028"/>
    </linearGradient>
    <filter id="drop-shadow-3" x="443.6" y="100.94" width="431.76" height="522.96" filterUnits="userSpaceOnUse">
      <feOffset dx="0" dy="-2.83"/>
      <feGaussianBlur result="blur2" stdDeviation="5.67"/>
      <feFlood flood-color="#967d50" flood-opacity="1"/>
      <feComposite in2="blur2" operator="in"/>
      <feComposite in="SourceGraphic"/>
    </filter>
    <filter id="drop-shadow-4" x="530" y="66.14" width="352.08" height="582.48" filterUnits="userSpaceOnUse">
      <feOffset dx="2.83" dy="2.83"/>
      <feGaussianBlur result="blur3" stdDeviation="5.67"/>
      <feFlood flood-color="#46576c" flood-opacity="1"/>
      <feComposite in2="blur3" operator="in"/>
      <feComposite in="SourceGraphic"/>
    </filter>
    <linearGradient id="linear-gradient1" x1="897.05" y1="102.16" x2="581.31" y2="649.03" xlink:href="#linear-gradient"/>
    <filter id="drop-shadow-5" x="-56.87" y="-51.05" width="610.08" height="234" filterUnits="userSpaceOnUse">
      <feOffset dx="0" dy="5.67"/>
      <feGaussianBlur result="blur4" stdDeviation="14.17"/>
      <feFlood flood-color="#bdbfc6" flood-opacity="1"/>
      <feComposite in2="blur4" operator="in"/>
      <feComposite in="SourceGraphic"/>
    </filter>
    <filter id="drop-shadow-6" x="-39.86" y="-34.04" width="521.52" height="196.08" filterUnits="userSpaceOnUse">
      <feOffset dx="0" dy="5.67"/>
      <feGaussianBlur result="blur5" stdDeviation="8.5"/>
      <feFlood flood-color="#576482" flood-opacity="1"/>
      <feComposite in2="blur5" operator="in"/>
      <feComposite in="SourceGraphic"/>
    </filter>
    <linearGradient id="linear-gradient2" x1="34.74" y1="172.13" x2="338.5" y2="-131.63" xlink:href="#linear-gradient"/>
    <linearGradient id="Gradiente_sem_nome_1311" data-name="Gradiente sem nome 131" x1="102.25" y1="188.87" x2="277.9" y2="-115.35" xlink:href="#Gradiente_sem_nome_131"/>
    <filter id="drop-shadow-7" x="-31.36" y="-35.62" width="465.84" height="182.16" filterUnits="userSpaceOnUse">
      <feOffset dx="0" dy="2.83"/>
      <feGaussianBlur result="blur6" stdDeviation="5.67"/>
      <feFlood flood-color="#967d50" flood-opacity="1"/>
      <feComposite in2="blur6" operator="in"/>
      <feComposite in="SourceGraphic"/>
    </filter>
    <filter id="drop-shadow-8" x="-33.76" y="-55.54" width="404.4" height="188.88" filterUnits="userSpaceOnUse">
      <feOffset dx="2.83" dy="2.83"/>
      <feGaussianBlur result="blur7" stdDeviation="5.67"/>
      <feFlood flood-color="#46576c" flood-opacity="1"/>
      <feComposite in2="blur7" operator="in"/>
      <feComposite in="SourceGraphic"/>
    </filter>
    <linearGradient id="linear-gradient3" x1="242.96" y1="-101.87" x2="87.53" y2="167.34" xlink:href="#linear-gradient"/>
    <linearGradient id="Gradiente_sem_nome_1312" data-name="Gradiente sem nome 131" x1="48.33" y1="519.73" x2="253.84" y2="519.73" xlink:href="#Gradiente_sem_nome_131"/>
    <linearGradient id="linear-gradient4" x1="38.46" y1="53.57" x2="83.67" y2="53.57" gradientUnits="userSpaceOnUse">
      <stop offset="0" stop-color="#d6811f"/>
      <stop offset=".18" stop-color="#e6ab28"/>
      <stop offset=".34" stop-color="#e29c25"/>
      <stop offset=".53" stop-color="#d15e17"/>
      <stop offset=".75" stop-color="#b62d0b"/>
      <stop offset=".98" stop-color="#edc02e"/>
    </linearGradient>
  </defs>
  <g>
    <rect class="st25" x="-14.17" y="-14.17" width="870.24" height="623.63" transform="translate(841.89 595.28) rotate(-180)"/>
    <g class="st29">
      <g>
        <g>
          <g>
            <g class="st5">
              <path class="st22" d="M622.93,440.34c233.14-173.73,235.14-359.73,235.14-359.73v528.83H-14.17s403.97,4.63,637.1-169.1Z"/>
            </g>
            <path d="M624.93,442.34c233.13-173.73,233.13-359.73,233.13-359.73v526.83H-12.17s403.97,6.63,637.1-167.1Z"/>
          </g>
          <g>
            <g class="st7">
              <path class="st18" d="M857.85,80.62s14.22,185.47-202.89,378.86c-76.82,68.43-176.9,116.48-274.16,150h477.05V80.62Z"/>
            </g>
            <path class="st21" d="M857.85,82.61s16.39,185.3-200.72,378.68c-75.87,67.58-174.44,115.04-270.57,148.18h471.3V82.61Z"/>
          </g>
          <g>
            <g class="st6">
              <path class="st22" d="M675,469.58c-59.97,59.34-136.28,103.79-214.4,139.86h397.46V120.89c-4.84,65.29-34.61,201.83-183.06,348.7Z"/>
            </g>
            <path d="M677.26,471.29c-59.33,58.69-134.63,102.25-211.86,138.16h392.66V128.78c-5.52,67.31-36.74,199.98-180.8,342.51Z"/>
          </g>
          <g class="st12">
            <path class="st2" d="M857.85,80.62c16.16,103.86-33.36,379.86-312.74,546.67"/>
          </g>
        </g>
        <g>
          <g class="st11">
            <path class="st27" d="M-14.17,126.91S308.16,183.93,510.43-14.17H-14.17V126.91Z"/>
            <path d="M92.48,132.82c-59.22,0-100.81-6.51-106.65-7.48V-14.17H507.49c-56.79,55.11-128.39,95.42-212.84,119.83-62.34,18.02-130.36,27.16-202.14,27.16h-.03Z"/>
          </g>
          <g class="st8">
            <path class="st15" d="M-14.17,123.22S274.69,178.75,455.96-14.17H-14.17V123.22Z"/>
            <path class="st28" d="M81.32,128.93c-52.85,0-90.04-6.29-95.49-7.27V-14.17h467.31c-50.89,53.65-115.03,92.89-190.68,116.66-55.86,17.55-116.79,26.44-181.11,26.44h-.03Z"/>
          </g>
          <g class="st9">
            <path class="st27" d="M-14.17,119.03S250.91,175.72,417.25-21.24H-14.17V119.03Z"/>
            <path d="M73.46,124.86c-48.5,0-82.62-6.43-87.63-7.42V-21.24h428.83c-46.7,54.77-105.56,94.84-174.98,119.1-51.26,17.91-107.18,27-166.2,27h-.03Z"/>
          </g>
          <g class="st10">
            <path class="st3" d="M-19.17,104.07s245.92,58.61,368.62-144.43"/>
          </g>
        </g>
      </g>
    </g>
    <g>
      <text/>
      <!-- CORPO DO CERTIFICADO — campos dinâmicos substituídos por JavaScript -->
      <text class="st-cert-intro" transform="translate(39.57 194)">
        <tspan x="0" y="0">Certificamos que</tspan>
      </text>
      <text class="st-cert-name" transform="translate(39.57 228)">
        <tspan x="0" y="0">[NOME DO PARTICIPANTE]</tspan>
      </text>
      <text class="st13" transform="translate(39.57 275)">
        <tspan x="0" y="0">participou da experi&#xEA;ncia &#x201C;[NOME DA PALESTRA]&#x201D;,</tspan>
        <tspan x="0" y="23">conduzida por Adriano Silva &#x2014; uma jornada de</tspan>
        <tspan x="0" y="46">transforma&#xE7;&#xE3;o, prop&#xF3;sito e conex&#xE3;o humana.</tspan>
        <tspan class="st-info" x="0" y="84">Carga hor&#xE1;ria: [CARGA_HORARIA]  &#xB7;  [DATA]</tspan>
        <tspan class="st-cert-tagline" x="0" y="112">Conhecimento que inspira. Experi&#xEA;ncia que transforma.</tspan>
      </text>
      <g>
        <g>
          <text class="st20" transform="translate(117.25 541.34)"><tspan x="0" y="0">PALESTRANTE</tspan></text>
          <text class="st19" transform="translate(88.86 560.33)"><tspan x="0" y="0">ADRIANO SILVA</tspan></text>
          <line class="st1" x1="48.33" y1="519.73" x2="253.84" y2="519.73"/>
        </g>
        <path class="st4" d="M97.34,488.44c34.85-27.01-14.9,9.15-16.71,14.28-1.81,5.12,65.59-29.24,61.53-18.35-17.07,32.36-19.01,41.95,25.63,6.8-15.43,11.66-20.3,5.59-16.45-.83,3.85-6.41,56.36-14.84,46.42-22.19-3.37-2.49-8.99,2.8-11.2,4.82-4.72,4.32-8.95,9.59-11.88,15.29-1.49,2.89-4.41,9.04-.19,11.04,2.39,1.13,5.81.03,8.13-.69,6.74-2.1,13.04-5.76,19.39-8.8,1.44-.69,3.06-1.61,3.29-3.19.21-1.45-.95-2.81-2.32-3.34-1.37-.53-2.88-.42-4.34-.3-1.76.14-3.58.31-5.1,1.2-1.52.9-2.62,2.76-2.05,4.43.66,1.96,3.05,2.63,5.09,3,6.7,1.22,13.41,2.44,20.11,3.65,1.79.33,4.19.32,4.79-1.4.41-1.19-.48-2.52-1.64-3.02s-2.48-.38-3.73-.2c-2.63.38-5.45,1.12-7.09,3.21-1.64,2.1-1.17,5.88,1.38,6.63"/>
      </g>
    </g>
    <g>
      <text class="st14" transform="translate(554.23 204.73)"><tspan x="0" y="0">.</tspan></text>
      <g>
        <g>
          <path class="st26" d="M583.87,92.45c-4.01,0-7.85-.78-11.52-2.35-3.67-1.57-6.6-3.87-8.78-6.9-2.19-3.03-3.51-6.34-3.97-9.94-.21-1.54-.31-3.24-.31-5.08s.23-4.29.69-7.32c.46-3.03,1.48-6.32,3.04-9.86,1.57-3.55,3.43-6.68,5.59-9.4-.87-3.44-1.31-6.61-1.31-9.52s.33-5.61,1-8.13c.1-.41.27-.7.5-.88.23-.18.4-.27.5-.27.51,0,.67.63.46,1.89-.21,1.26-.31,3.06-.31,5.39s.33,5.3,1,8.9c4.11-5.29,8.94-9.14,14.49-11.56,4.26-1.85,8.73-2.77,13.41-2.77,1.34,0,2.72.08,4.16.23,7.91.87,13.25,3.9,16.03,9.09,1.13,2.16,1.69,4.39,1.69,6.7s-.54,4.7-1.62,7.16c-2.26,4.93-6.14,8.58-11.63,10.94-3.54,1.54-7.42,2.31-11.63,2.31-1.8,0-3.62-.13-5.47-.39-9.19-1.33-15.56-5.7-19.11-13.1-1.23,1.75-2.5,4.67-3.81,8.78-1.31,4.11-2.07,7.27-2.27,9.48-.21,2.21-.31,4.06-.31,5.55s.1,3.03.31,4.62c.36,2.82,1.44,5.38,3.24,7.67s4.2,3.88,7.21,4.78c3,.9,5.61,1.35,7.82,1.35,7.14,0,13.23-1.49,18.26-4.47,3.03-1.8,5.41-3.84,7.13-6.13,1.72-2.28,3.56-5.43,5.51-9.44.31-.67.63-.9.96-.69.33.2.32.69-.04,1.46-1.95,3.96-3.76,7.09-5.43,9.4s-3.94,4.47-6.82,6.47c-5.75,4.01-11.97,6.01-18.64,6.01ZM572.31,45.14c3.65,9.3,11.25,13.95,22.81,13.95,6.52,0,11.75-1.82,15.68-5.47,3.93-3.65,5.89-7.78,5.89-12.4s-2-8.22-6.01-10.79c-2.98-1.9-6.65-2.85-11.02-2.85s-8.76,1.26-13.17,3.78c-5.55,3.24-10.28,7.83-14.18,13.79Z"/>
          <path class="st26" d="M617.15,72.8c-.72,1.75-1.08,3.7-1.08,5.86,0,1.44.32,2.58.96,3.43s1.55,1.27,2.74,1.27c4.67,0,8.91-4.39,12.71-13.18.36-.82.8-1.18,1.31-1.08.2.05.31.18.31.39s-.58,1.55-1.73,4.05-2.32,4.51-3.5,6.05c-2.62,3.6-5.86,5.39-9.71,5.39-2.05,0-3.8-.67-5.24-2-1.44-1.34-2.16-3.16-2.16-5.47s.55-4.76,1.66-7.36c1.1-2.59,2.61-5.01,4.51-7.24s4.08-3.86,6.55-4.89c1.18-.51,2.31-.77,3.39-.77s2.08.31,3.01.92c.87.72,1.31,1.52,1.31,2.39,0,3.08-1.85,6.04-5.55,8.86-1.13.87-2.72,1.66-4.78,2.35s-3.62,1.04-4.7,1.04ZM630.1,60.47c0-1.03-.41-1.54-1.23-1.54-1.44,0-3.62,1.77-6.55,5.32-1.75,2.16-3.29,4.57-4.62,7.24.87,0,2.14-.31,3.81-.93,1.67-.62,3.12-1.44,4.35-2.46,2.82-2.41,4.24-4.96,4.24-7.63Z"/>
          <path class="st26" d="M643.11,53.77c0,2.31-1.46,4.49-4.39,6.55,1.03.05,2.4.08,4.12.08s3.89-.13,6.51-.39c.1.15.15.57.15,1.23s-.31,1.66-.92,2.97c-.62,1.31-1.17,2.44-1.66,3.39-.49.95-.95,1.85-1.39,2.7s-.92,1.89-1.46,3.12c-.54,1.23-.99,2.36-1.35,3.39-1.28,3.9-1.08,5.86.62,5.86,2.16,0,5.34-4.29,9.55-12.87.36-.67.65-.92.89-.77.23.15.35.35.35.58s-.33,1.03-1,2.39-1.39,2.76-2.16,4.2c-.77,1.44-1.98,3.11-3.62,5.01-1.95,2.36-3.83,3.54-5.62,3.54-2,0-3.39-1.21-4.16-3.62-.15-.46-.23-1.16-.23-2.08s.29-2.16.89-3.7c.59-1.54,1.53-3.42,2.81-5.63,1.28-2.21,2-3.5,2.16-3.89.15-.39.23-.76.23-1.12,0-1.59-2.05-2.44-6.16-2.54l-.92,2.46c-3.24,8.48-6.34,14.15-9.32,17.03-.51.46-.77.31-.77-.46,0-.15.05-.33.15-.54,2.88-3.8,5.37-8.29,7.47-13.48s3.57-10.12,4.39-14.79c.31-1.59,1.03-2.39,2.16-2.39s1.95.72,2.47,2.16c.15.46.23,1,.23,1.62Z"/>
          <path class="st26" d="M650.82,78.5c0-4.26,2.05-11.4,6.16-21.42h-4.01c-.26,0-.42-.14-.5-.42-.08-.28-.05-.56.08-.85s.32-.42.58-.42h4.62c1.85-4.06,3.57-7.45,5.16-10.17,1.59-2.72,3.05-4.56,4.39-5.51,1.33-.95,2.3-1.43,2.89-1.43s1.01.05,1.27.15c1.18.57,1.77,1.73,1.77,3.51s-.59,3.92-1.77,6.43c-1.18,2.52-2.34,4.85-3.47,7.01h3.7c.26,0,.42.14.5.42.08.28.05.57-.08.85-.13.28-.32.42-.58.42h-4.47c-2.83,4.78-6.24,9.02-10.25,12.71l-1.77,7.86c-.15.67-.23,1.32-.23,1.96s.18,1.3.54,1.97c.36.67.93,1,1.7,1,.87,0,1.85-.31,2.93-.93,2.47-1.85,5.19-5.73,8.17-11.63.2-.46.45-.74.73-.85.28-.1.45-.04.5.19.05.23-.03.6-.23,1.12-1.69,3.54-3.03,6.06-4.01,7.55-2.77,4.47-5.73,6.7-8.86,6.7-1.59,0-2.9-.59-3.93-1.77s-1.54-2.67-1.54-4.47ZM665.3,57.08h-3.62c-.62,1.44-2,4.85-4.16,10.25,2.77-2.88,5.37-6.29,7.78-10.25ZM666.31,55.39c3.39-6.06,5.08-10.27,5.08-12.64,0-1.03-.18-1.54-.54-1.54-.57,0-1.43.82-2.58,2.47s-3.1,5.55-5.82,11.71h3.85Z"/>
          <path class="st26" d="M671.16,82.97c.98,0,2-.49,3.08-1.46,1.9-1.9,4.31-5.78,7.24-11.63.36-.77.72-1,1.08-.69.1.1.15.27.15.5s-.21.8-.62,1.69c-.41.9-.78,1.71-1.12,2.43s-.98,1.89-1.93,3.5c-.95,1.62-1.81,2.87-2.58,3.74-2.11,2.41-4.1,3.62-5.97,3.62s-3.22-.56-4.05-1.69-1.23-2.39-1.23-3.78.33-2.9,1-4.55l4.93-12.56c.1-.31.15-.72.15-1.23s-.31-1.18-.93-2l4.24-.08c1.18,0,1.88.22,2.08.65.2.44.05,1.12-.46,2.04l-6.16,14.41c-.87,1.9-1.31,3.52-1.31,4.85,0,1.49.8,2.23,2.39,2.23ZM678.71,54.69c-.72.62-1.52.93-2.39.93s-1.57-.31-2.08-.93c-.51-.62-.72-1.36-.62-2.23.15-.87.59-1.62,1.31-2.23.72-.62,1.51-.93,2.39-.93s1.58.31,2.12.93c.54.62.73,1.36.58,2.23-.15.87-.59,1.62-1.31,2.23Z"/>
          <path class="st26" d="M672.47,111.48c-2.82,0-4.24-1.41-4.24-4.24,0-4.06,2.65-12.33,7.94-24.81-.62-1.03-.92-1.87-.92-2.54,0-2.16.49-3.6,1.46-4.32.72-.62,1.32-.92,1.81-.92s.81.03.96.08c5.86-13.2,11.12-24.17,15.79-32.9.92-1.85,1.88-3.21,2.85-4.08.98-.87,2.21-1.31,3.7-1.31.2,0,.72.08,1.54.23.82.15,1.44.21,1.85.15-2.42,2.26-5.81,7.24-10.17,14.95s-8.5,15.95-12.4,24.73c1.18,1.44,2,3.36,2.47,5.78l.23,1h.23c1.39,0,2.85-.81,4.39-2.43,1.54-1.62,2.8-3.29,3.78-5.01.98-1.72,1.77-3.24,2.39-4.55.62-1.31,1-2.01,1.16-2.12.15-.1.29-.14.42-.12.13.03.24.08.35.15.1.08.15.21.15.39s-.05.37-.15.58c-4.26,9.71-8.45,14.56-12.56,14.56.05.82.08,2.17.08,4.05s-.46,4.66-1.39,8.36c-.92,3.7-2.48,7.01-4.66,9.94-2.19,2.93-4.53,4.39-7.05,4.39ZM672.39,107.24c0,1.49.41,2.23,1.23,2.23.98,0,2.32-1.14,4.05-3.43,1.72-2.29,3.18-5.42,4.39-9.4,1.21-3.98,1.81-7.59,1.81-10.83v-.77h-.69c-1.49,0-2.75-.41-3.78-1.23-4.67,11.81-7.01,19.62-7.01,23.42ZM683.26,83.59h.46c-.15-2.21-.77-3.98-1.85-5.32l-1.69,3.85c.51.98,1.54,1.46,3.08,1.46Z"/>
          <path class="st26" d="M699.82,82.97c.98,0,2-.49,3.08-1.46,1.9-1.9,4.31-5.78,7.24-11.63.36-.77.72-1,1.08-.69.1.1.15.27.15.5s-.21.8-.62,1.69c-.41.9-.78,1.71-1.12,2.43s-.98,1.89-1.93,3.5c-.95,1.62-1.81,2.87-2.58,3.74-2.11,2.41-4.1,3.62-5.97,3.62s-3.22-.56-4.05-1.69-1.23-2.39-1.23-3.78.33-2.9,1-4.55l4.93-12.56c.1-.31.15-.72.15-1.23s-.31-1.18-.93-2l4.24-.08c1.18,0,1.88.22,2.08.65.2.44.05,1.12-.46,2.04l-6.16,14.41c-.87,1.9-1.31,3.52-1.31,4.85,0,1.49.8,2.23,2.39,2.23ZM707.37,54.69c-.72.62-1.52.93-2.39.93s-1.57-.31-2.08-.93c-.51-.62-.72-1.36-.62-2.23.15-.87.59-1.62,1.31-2.23.72-.62,1.51-.93,2.39-.93s1.58.31,2.12.93c.54.62.73,1.36.58,2.23-.15.87-.59,1.62-1.31,2.23Z"/>
          <path class="st26" d="M724.4,66.95c1.8-2.16,2.7-3.98,2.7-5.47s-.62-2.23-1.85-2.23c-2.41,0-5.16,2.21-8.24,6.63-.98,1.39-1.93,3.21-2.85,5.47-.93,2.26-1.39,4.3-1.39,6.13s.37,3.3,1.12,4.43,1.9,1.69,3.47,1.69,3.02-.37,4.35-1.12c1.33-.74,2.61-1.93,3.81-3.54,1.21-1.62,2.12-2.97,2.73-4.05.62-1.08,1.46-2.7,2.54-4.85.36-.72.67-1.01.92-.89.26.13.39.31.39.54s-.35,1.08-1.04,2.54-1.39,2.84-2.08,4.12c-.69,1.29-1.68,2.72-2.97,4.32-2.31,2.88-5.47,4.31-9.48,4.31-2.88,0-4.94-.71-6.2-2.12-1.26-1.41-1.89-3.04-1.89-4.89,0-2.26.55-4.73,1.66-7.4,1.1-2.67,2.37-4.98,3.81-6.93,2.98-4.06,6.42-6.09,10.32-6.09,1.9,0,3.27.45,4.12,1.35s1.27,1.94,1.27,3.12c0,1.75-.72,3.24-2.16,4.47-.72.67-1.32,1-1.81,1s-.91-.18-1.27-.54Z"/>
          <path class="st26" d="M749.75,70.07c-1.69,3.26-2.71,5.7-3.04,7.32-.34,1.62-.5,2.93-.5,3.93s.39,1.5,1.16,1.5c.98,0,2.18-.9,3.62-2.7,2.11-2.62,4.19-6.03,6.24-10.25.2-.46.44-.72.69-.77.41-.15.62,0,.62.46,0,.26-.08.57-.23.92-4.73,9.55-8.71,14.33-11.94,14.33-1.49,0-2.7-.72-3.62-2.16-.46-.77-.69-1.8-.69-3.08s.26-2.85.77-4.7c-4.11,6.63-7.65,9.94-10.63,9.94-.82,0-1.57-.26-2.23-.77-1.54-1.08-2.31-2.93-2.31-5.55,0-5.03,2.18-10.14,6.55-15.33,2.46-2.88,5.5-4.75,9.09-5.62.98-.26,1.9-.39,2.77-.39,2.36,0,4.37.82,6.01,2.46.51.57.67,1.1.46,1.62-.21.51-.64.72-1.31.62-.57-1.85-1.8-2.77-3.7-2.77-2.21,0-4.93,1.75-8.17,5.24-1.85,2.06-3.57,4.47-5.16,7.24-2,3.34-3.01,6.01-3.01,8.01s.64,3.01,1.93,3.01c3.08,0,7.11-4.73,12.1-14.18.98-1.9,1.8-3.2,2.47-3.89.67-.69,1.51-1.04,2.54-1.04.2,0,.73.08,1.58.23.85.15,1.48.18,1.89.08-.92.92-2.23,3.02-3.93,6.28Z"/>
          <path class="st26" d="M773.48,80.2c0,1.64.67,2.47,2,2.47,2.41,0,5.62-4.03,9.63-12.1.15-.31.29-.62.42-.92s.33-.51.62-.62c.28-.1.47-.04.58.19.1.23.05.6-.15,1.12-4.11,9.55-8.27,14.33-12.48,14.33-1.39,0-2.49-.62-3.31-1.85-.82-1.23-1.23-2.45-1.23-3.66s.13-2.32.39-3.35c-2.98,4.93-5.55,7.73-7.7,8.4-.62.26-1.22.39-1.81.39s-1.17-.08-1.73-.23c-2.52-.67-3.78-2.67-3.78-6.01,0-2.26.58-4.76,1.73-7.51s2.79-5.38,4.89-7.9c2.11-2.52,4.65-4.21,7.63-5.09,1.08-.36,2.35-.54,3.81-.54s3.09.46,4.89,1.39c3.49-6.57,6.47-12.66,8.94-18.26.72-1.69,1.43-2.79,2.12-3.27.69-.49,1.33-.73,1.93-.73h1.08c.13,0,.62.06,1.46.19s1.5.17,1.96.12c-1.18,1.08-4.31,6.32-9.4,15.72-6.47,12.02-10.38,20.03-11.71,24.04-.51,1.49-.77,2.72-.77,3.7ZM777.25,59.93c-.67-.67-1.61-1-2.81-1s-2.89.9-5.05,2.7c-3.44,2.88-6.29,6.42-8.55,10.63-1.49,2.77-2.23,5.06-2.23,6.86,0,.82.17,1.57.5,2.23.33.67.86,1,1.58,1,1.75,0,3.9-1.8,6.47-5.39,2.57-3.6,5.93-9.27,10.09-17.03Z"/>
          <path class="st26" d="M799.52,57.7c3.75,0,5.62,2.36,5.62,7.09,0,2.16-.57,4.47-1.69,6.93-1.44,3.34-3.6,6.37-6.47,9.09.67,1.29,1.88,1.93,3.62,1.93,1.39,0,2.7-.69,3.93-2.08,1.54-1.59,2.64-2.99,3.31-4.2.67-1.21,1.16-2.09,1.46-2.66.31-.56.71-1.37,1.19-2.43.49-1.05.78-1.69.89-1.93.1-.23.28-.35.54-.35.51-.05.77.13.77.54,0,.15-.05.33-.15.54l-.46,1.08c-.31.72-.54,1.23-.69,1.54-.15.31-.42.86-.81,1.66-.39.8-.72,1.43-1,1.89-.28.46-.67,1.08-1.16,1.85s-.92,1.39-1.31,1.85-.86.98-1.43,1.54-1.11,1-1.62,1.31c-1.29.77-2.49,1.16-3.62,1.16-2.11,0-3.75-.67-4.93-2-2.36,1.75-4.54,2.62-6.55,2.62-3.75,0-5.62-2.36-5.62-7.09,0-2.16.56-4.47,1.69-6.93,1.54-3.6,3.71-6.65,6.51-9.17,2.8-2.52,5.46-3.78,7.97-3.78ZM800.36,60.09c-1.39,0-3.03.93-4.93,2.77-1.9,1.85-3.6,4.37-5.08,7.55-1.8,3.7-2.7,6.73-2.7,9.09s.9,3.54,2.7,3.54c1.28,0,2.72-.69,4.31-2.08-.82-1.18-1.23-2.44-1.23-3.77.1-2.21,1-3.31,2.7-3.31.67,0,1.22.23,1.66.69.43.46.65.89.65,1.27s-.05.78-.15,1.19c.87-1.28,1.87-3.11,3-5.47,1.28-2.62,1.93-5.19,1.93-7.7s-.95-3.78-2.85-3.78Z"/>
        </g>
        <g>
          <path d="M583.87,92.45c-4.01,0-7.85-.78-11.52-2.35-3.67-1.57-6.6-3.87-8.78-6.9-2.19-3.03-3.51-6.34-3.97-9.94-.21-1.54-.31-3.24-.31-5.08s.23-4.29.69-7.32c.46-3.03,1.48-6.32,3.04-9.86,1.57-3.55,3.43-6.68,5.59-9.4-.87-3.44-1.31-6.61-1.31-9.52s.33-5.61,1-8.13c.1-.41.27-.7.5-.88.23-.18.4-.27.5-.27.51,0,.67.63.46,1.89-.21,1.26-.31,3.06-.31,5.39s.33,5.3,1,8.9c4.11-5.29,8.94-9.14,14.49-11.56,4.26-1.85,8.73-2.77,13.41-2.77,1.34,0,2.72.08,4.16.23,7.91.87,13.25,3.9,16.03,9.09,1.13,2.16,1.69,4.39,1.69,6.7s-.54,4.7-1.62,7.16c-2.26,4.93-6.14,8.58-11.63,10.94-3.54,1.54-7.42,2.31-11.63,2.31-1.8,0-3.62-.13-5.47-.39-9.19-1.33-15.56-5.7-19.11-13.1-1.23,1.75-2.5,4.67-3.81,8.78-1.31,4.11-2.07,7.27-2.27,9.48-.21,2.21-.31,4.06-.31,5.55s.1,3.03.31,4.62c.36,2.82,1.44,5.38,3.24,7.67s4.2,3.88,7.21,4.78c3,.9,5.61,1.35,7.82,1.35,7.14,0,13.23-1.49,18.26-4.47,3.03-1.8,5.41-3.84,7.13-6.13,1.72-2.28,3.56-5.43,5.51-9.44.31-.67.63-.9.96-.69.33.2.32.69-.04,1.46-1.95,3.96-3.76,7.09-5.43,9.4s-3.94,4.47-6.82,6.47c-5.75,4.01-11.97,6.01-18.64,6.01ZM572.31,45.14c3.65,9.3,11.25,13.95,22.81,13.95,6.52,0,11.75-1.82,15.68-5.47,3.93-3.65,5.89-7.78,5.89-12.4s-2-8.22-6.01-10.79c-2.98-1.9-6.65-2.85-11.02-2.85s-8.76,1.26-13.17,3.78c-5.55,3.24-10.28,7.83-14.18,13.79Z"/>
          <path d="M617.15,72.8c-.72,1.75-1.08,3.7-1.08,5.86,0,1.44.32,2.58.96,3.43s1.55,1.27,2.74,1.27c4.67,0,8.91-4.39,12.71-13.18.36-.82.8-1.18,1.31-1.08.2.05.31.18.31.39s-.58,1.55-1.73,4.05-2.32,4.51-3.5,6.05c-2.62,3.6-5.86,5.39-9.71,5.39-2.05,0-3.8-.67-5.24-2-1.44-1.34-2.16-3.16-2.16-5.47s.55-4.76,1.66-7.36c1.1-2.59,2.61-5.01,4.51-7.24s4.08-3.86,6.55-4.89c1.18-.51,2.31-.77,3.39-.77s2.08.31,3.01.92c.87.72,1.31,1.52,1.31,2.39,0,3.08-1.85,6.04-5.55,8.86-1.13.87-2.72,1.66-4.78,2.35s-3.62,1.04-4.7,1.04ZM630.1,60.47c0-1.03-.41-1.54-1.23-1.54-1.44,0-3.62,1.77-6.55,5.32-1.75,2.16-3.29,4.57-4.62,7.24.87,0,2.14-.31,3.81-.93,1.67-.62,3.12-1.44,4.35-2.46,2.82-2.41,4.24-4.96,4.24-7.63Z"/>
          <path d="M643.11,53.77c0,2.31-1.46,4.49-4.39,6.55,1.03.05,2.4.08,4.12.08s3.89-.13,6.51-.39c.1.15.15.57.15,1.23s-.31,1.66-.92,2.97c-.62,1.31-1.17,2.44-1.66,3.39-.49.95-.95,1.85-1.39,2.7s-.92,1.89-1.46,3.12c-.54,1.23-.99,2.36-1.35,3.39-1.28,3.9-1.08,5.86.62,5.86,2.16,0,5.34-4.29,9.55-12.87.36-.67.65-.92.89-.77.23.15.35.35.35.58s-.33,1.03-1,2.39-1.39,2.76-2.16,4.2c-.77,1.44-1.98,3.11-3.62,5.01-1.95,2.36-3.83,3.54-5.62,3.54-2,0-3.39-1.21-4.16-3.62-.15-.46-.23-1.16-.23-2.08s.29-2.16.89-3.7c.59-1.54,1.53-3.42,2.81-5.63,1.28-2.21,2-3.5,2.16-3.89.15-.39.23-.76.23-1.12,0-1.59-2.05-2.44-6.16-2.54l-.92,2.46c-3.24,8.48-6.34,14.15-9.32,17.03-.51.46-.77.31-.77-.46,0-.15.05-.33.15-.54,2.88-3.8,5.37-8.29,7.47-13.48s3.57-10.12,4.39-14.79c.31-1.59,1.03-2.39,2.16-2.39s1.95.72,2.47,2.16c.15.46.23,1,.23,1.62Z"/>
          <path d="M650.82,78.5c0-4.26,2.05-11.4,6.16-21.42h-4.01c-.26,0-.42-.14-.5-.42-.08-.28-.05-.56.08-.85s.32-.42.58-.42h4.62c1.85-4.06,3.57-7.45,5.16-10.17,1.59-2.72,3.05-4.56,4.39-5.51,1.33-.95,2.3-1.43,2.89-1.43s1.01.05,1.27.15c1.18.57,1.77,1.73,1.77,3.51s-.59,3.92-1.77,6.43c-1.18,2.52-2.34,4.85-3.47,7.01h3.7c.26,0,.42.14.5.42.08.28.05.57-.08.85-.13.28-.32.42-.58.42h-4.47c-2.83,4.78-6.24,9.02-10.25,12.71l-1.77,7.86c-.15.67-.23,1.32-.23,1.96s.18,1.3.54,1.97c.36.67.93,1,1.7,1,.87,0,1.85-.31,2.93-.93,2.47-1.85,5.19-5.73,8.17-11.63.2-.46.45-.74.73-.85.28-.1.45-.04.5.19.05.23-.03.6-.23,1.12-1.69,3.54-3.03,6.06-4.01,7.55-2.77,4.47-5.73,6.7-8.86,6.7-1.59,0-2.9-.59-3.93-1.77s-1.54-2.67-1.54-4.47ZM665.3,57.08h-3.62c-.62,1.44-2,4.85-4.16,10.25,2.77-2.88,5.37-6.29,7.78-10.25ZM666.31,55.39c3.39-6.06,5.08-10.27,5.08-12.64,0-1.03-.18-1.54-.54-1.54-.57,0-1.43.82-2.58,2.47s-3.1,5.55-5.82,11.71h3.85Z"/>
          <path d="M671.16,82.97c.98,0,2-.49,3.08-1.46,1.9-1.9,4.31-5.78,7.24-11.63.36-.77.72-1,1.08-.69.1.1.15.27.15.5s-.21.8-.62,1.69c-.41.9-.78,1.71-1.12,2.43s-.98,1.89-1.93,3.5c-.95,1.62-1.81,2.87-2.58,3.74-2.11,2.41-4.1,3.62-5.97,3.62s-3.22-.56-4.05-1.69-1.23-2.39-1.23-3.78.33-2.9,1-4.55l4.93-12.56c.1-.31.15-.72.15-1.23s-.31-1.18-.93-2l4.24-.08c1.18,0,1.88.22,2.08.65.2.44.05,1.12-.46,2.04l-6.16,14.41c-.87,1.9-1.31,3.52-1.31,4.85,0,1.49.8,2.23,2.39,2.23ZM678.71,54.69c-.72.62-1.52.93-2.39.93s-1.57-.31-2.08-.93c-.51-.62-.72-1.36-.62-2.23.15-.87.59-1.62,1.31-2.23.72-.62,1.51-.93,2.39-.93s1.58.31,2.12.93c.54.62.73,1.36.58,2.23-.15.87-.59,1.62-1.31,2.23Z"/>
          <path d="M672.47,111.48c-2.82,0-4.24-1.41-4.24-4.24,0-4.06,2.65-12.33,7.94-24.81-.62-1.03-.92-1.87-.92-2.54,0-2.16.49-3.6,1.46-4.32.72-.62,1.32-.92,1.81-.92s.81.03.96.08c5.86-13.2,11.12-24.17,15.79-32.9.92-1.85,1.88-3.21,2.85-4.08.98-.87,2.21-1.31,3.7-1.31.2,0,.72.08,1.54.23.82.15,1.44.21,1.85.15-2.42,2.26-5.81,7.24-10.17,14.95s-8.5,15.95-12.4,24.73c1.18,1.44,2,3.36,2.47,5.78l.23,1h.23c1.39,0,2.85-.81,4.39-2.43,1.54-1.62,2.8-3.29,3.78-5.01.98-1.72,1.77-3.24,2.39-4.55.62-1.31,1-2.01,1.16-2.12.15-.1.29-.14.42-.12.13.03.24.08.35.15.1.08.15.21.15.39s-.05.37-.15.58c-4.26,9.71-8.45,14.56-12.56,14.56.05.82.08,2.17.08,4.05s-.46,4.66-1.39,8.36c-.92,3.7-2.48,7.01-4.66,9.94-2.19,2.93-4.53,4.39-7.05,4.39ZM672.39,107.24c0,1.49.41,2.23,1.23,2.23.98,0,2.32-1.14,4.05-3.43,1.72-2.29,3.18-5.42,4.39-9.4,1.21-3.98,1.81-7.59,1.81-10.83v-.77h-.69c-1.49,0-2.75-.41-3.78-1.23-4.67,11.81-7.01,19.62-7.01,23.42ZM683.26,83.59h.46c-.15-2.21-.77-3.98-1.85-5.32l-1.69,3.85c.51.98,1.54,1.46,3.08,1.46Z"/>
          <path d="M699.82,82.97c.98,0,2-.49,3.08-1.46,1.9-1.9,4.31-5.78,7.24-11.63.36-.77.72-1,1.08-.69.1.1.15.27.15.5s-.21.8-.62,1.69c-.41.9-.78,1.71-1.12,2.43s-.98,1.89-1.93,3.5c-.95,1.62-1.81,2.87-2.58,3.74-2.11,2.41-4.1,3.62-5.97,3.62s-3.22-.56-4.05-1.69-1.23-2.39-1.23-3.78.33-2.9,1-4.55l4.93-12.56c.1-.31.15-.72.15-1.23s-.31-1.18-.93-2l4.24-.08c1.18,0,1.88.22,2.08.65.2.44.05,1.12-.46,2.04l-6.16,14.41c-.87,1.9-1.31,3.52-1.31,4.85,0,1.49.8,2.23,2.39,2.23ZM707.37,54.69c-.72.62-1.52.93-2.39.93s-1.57-.31-2.08-.93c-.51-.62-.72-1.36-.62-2.23.15-.87.59-1.62,1.31-2.23.72-.62,1.51-.93,2.39-.93s1.58.31,2.12.93c.54.62.73,1.36.58,2.23-.15.87-.59,1.62-1.31,2.23Z"/>
          <path d="M724.4,66.95c1.8-2.16,2.7-3.98,2.7-5.47s-.62-2.23-1.85-2.23c-2.41,0-5.16,2.21-8.24,6.63-.98,1.39-1.93,3.21-2.85,5.47-.93,2.26-1.39,4.3-1.39,6.13s.37,3.3,1.12,4.43,1.9,1.69,3.47,1.69,3.02-.37,4.35-1.12c1.33-.74,2.61-1.93,3.81-3.54,1.21-1.62,2.12-2.97,2.73-4.05.62-1.08,1.46-2.7,2.54-4.85.36-.72.67-1.01.92-.89.26.13.39.31.39.54s-.35,1.08-1.04,2.54-1.39,2.84-2.08,4.12c-.69,1.29-1.68,2.72-2.97,4.32-2.31,2.88-5.47,4.31-9.48,4.31-2.88,0-4.94-.71-6.2-2.12-1.26-1.41-1.89-3.04-1.89-4.89,0-2.26.55-4.73,1.66-7.4,1.1-2.67,2.37-4.98,3.81-6.93,2.98-4.06,6.42-6.09,10.32-6.09,1.9,0,3.27.45,4.12,1.35s1.27,1.94,1.27,3.12c0,1.75-.72,3.24-2.16,4.47-.72.67-1.32,1-1.81,1s-.91-.18-1.27-.54Z"/>
          <path d="M749.75,70.07c-1.69,3.26-2.71,5.7-3.04,7.32-.34,1.62-.5,2.93-.5,3.93s.39,1.5,1.16,1.5c.98,0,2.18-.9,3.62-2.7,2.11-2.62,4.19-6.03,6.24-10.25.2-.46.44-.72.69-.77.41-.15.62,0,.62.46,0,.26-.08.57-.23.92-4.73,9.55-8.71,14.33-11.94,14.33-1.49,0-2.7-.72-3.62-2.16-.46-.77-.69-1.8-.69-3.08s.26-2.85.77-4.7c-4.11,6.63-7.65,9.94-10.63,9.94-.82,0-1.57-.26-2.23-.77-1.54-1.08-2.31-2.93-2.31-5.55,0-5.03,2.18-10.14,6.55-15.33,2.46-2.88,5.5-4.75,9.09-5.62.98-.26,1.9-.39,2.77-.39,2.36,0,4.37.82,6.01,2.46.51.57.67,1.1.46,1.62-.21.51-.64.72-1.31.62-.57-1.85-1.8-2.77-3.7-2.77-2.21,0-4.93,1.75-8.17,5.24-1.85,2.06-3.57,4.47-5.16,7.24-2,3.34-3.01,6.01-3.01,8.01s.64,3.01,1.93,3.01c3.08,0,7.11-4.73,12.1-14.18.98-1.9,1.8-3.2,2.47-3.89.67-.69,1.51-1.04,2.54-1.04.2,0,.73.08,1.58.23.85.15,1.48.18,1.89.08-.92.92-2.23,3.02-3.93,6.28Z"/>
          <path d="M773.48,80.2c0,1.64.67,2.47,2,2.47,2.41,0,5.62-4.03,9.63-12.1.15-.31.29-.62.42-.92s.33-.51.62-.62c.28-.1.47-.04.58.19.1.23.05.6-.15,1.12-4.11,9.55-8.27,14.33-12.48,14.33-1.39,0-2.49-.62-3.31-1.85-.82-1.23-1.23-2.45-1.23-3.66s.13-2.32.39-3.35c-2.98,4.93-5.55,7.73-7.7,8.4-.62.26-1.22.39-1.81.39s-1.17-.08-1.73-.23c-2.52-.67-3.78-2.67-3.78-6.01,0-2.26.58-4.76,1.73-7.51s2.79-5.38,4.89-7.9c2.11-2.52,4.65-4.21,7.63-5.09,1.08-.36,2.35-.54,3.81-.54s3.09.46,4.89,1.39c3.49-6.57,6.47-12.66,8.94-18.26.72-1.69,1.43-2.79,2.12-3.27.69-.49,1.33-.73,1.93-.73h1.08c.13,0,.62.06,1.46.19s1.5.17,1.96.12c-1.18,1.08-4.31,6.32-9.4,15.72-6.47,12.02-10.38,20.03-11.71,24.04-.51,1.49-.77,2.72-.77,3.7ZM777.25,59.93c-.67-.67-1.61-1-2.81-1s-2.89.9-5.05,2.7c-3.44,2.88-6.29,6.42-8.55,10.63-1.49,2.77-2.23,5.06-2.23,6.86,0,.82.17,1.57.5,2.23.33.67.86,1,1.58,1,1.75,0,3.9-1.8,6.47-5.39,2.57-3.6,5.93-9.27,10.09-17.03Z"/>
          <path d="M799.52,57.7c3.75,0,5.62,2.36,5.62,7.09,0,2.16-.57,4.47-1.69,6.93-1.44,3.34-3.6,6.37-6.47,9.09.67,1.29,1.88,1.93,3.62,1.93,1.39,0,2.7-.69,3.93-2.08,1.54-1.59,2.64-2.99,3.31-4.2.67-1.21,1.16-2.09,1.46-2.66.31-.56.71-1.37,1.19-2.43.49-1.05.78-1.69.89-1.93.1-.23.28-.35.54-.35.51-.05.77.13.77.54,0,.15-.05.33-.15.54l-.46,1.08c-.31.72-.54,1.23-.69,1.54-.15.31-.42.86-.81,1.66-.39.8-.72,1.43-1,1.89-.28.46-.67,1.08-1.16,1.85s-.92,1.39-1.31,1.85-.86.98-1.43,1.54-1.11,1-1.62,1.31c-1.29.77-2.49,1.16-3.62,1.16-2.11,0-3.75-.67-4.93-2-2.36,1.75-4.54,2.62-6.55,2.62-3.75,0-5.62-2.36-5.62-7.09,0-2.16.56-4.47,1.69-6.93,1.54-3.6,3.71-6.65,6.51-9.17,2.8-2.52,5.46-3.78,7.97-3.78ZM800.36,60.09c-1.39,0-3.03.93-4.93,2.77-1.9,1.85-3.6,4.37-5.08,7.55-1.8,3.7-2.7,6.73-2.7,9.09s.9,3.54,2.7,3.54c1.28,0,2.72-.69,4.31-2.08-.82-1.18-1.23-2.44-1.23-3.77.1-2.21,1-3.31,2.7-3.31.67,0,1.22.23,1.66.69.43.46.65.89.65,1.27s-.05.78-.15,1.19c.87-1.28,1.87-3.11,3-5.47,1.28-2.62,1.93-5.19,1.93-7.7s-.95-3.78-2.85-3.78Z"/>
        </g>
      </g>
      <g>
        <path class="st24" d="M689.02,105.63v-11.91h2.64c1.24,0,2.12.25,2.63.76.51.51.77,1.39.77,2.64v4.68c0,1.31-.26,2.27-.78,2.89-.52.62-1.4.93-2.63.93h-2.62ZM690.73,104.36h.94c.28,0,.52-.02.72-.08.2-.05.36-.14.48-.28.12-.14.22-.26.29-.39.07-.12.12-.31.15-.57.03-.26.05-.47.05-.63s0-.42,0-.77v-4.09c0-.22,0-.39,0-.52,0-.13,0-.28-.02-.46s-.03-.31-.05-.41-.05-.22-.09-.34-.09-.22-.15-.3-.13-.14-.22-.22c-.09-.08-.19-.14-.3-.17-.11-.04-.25-.07-.4-.09-.15-.02-.32-.04-.5-.04h-.9v9.35Z"/>
        <path class="st24" d="M698.59,105.63v-11.91h4.68v1.27h-2.98v3.83h2.13v1.27h-2.13v4.25h2.98v1.28h-4.68Z"/>
        <path class="st24" d="M711.16,105.63v-11.91h2.98c1.98,0,2.98,1.13,2.98,3.4,0,.97-.25,1.71-.77,2.22s-1.25.76-2.21.76h-1.27v5.53h-1.7ZM712.86,98.83h.42c.39,0,.7-.02.95-.07.25-.04.46-.13.65-.25.19-.12.32-.29.41-.52.08-.23.12-.51.12-.86,0-.42-.03-.77-.09-1.03-.06-.26-.18-.48-.34-.65-.17-.17-.38-.28-.64-.35-.26-.06-.61-.1-1.05-.1h-.42v3.83Z"/>
        <path class="st24" d="M718.97,105.63l2.55-11.91h1.7l2.55,11.91h-1.7l-.64-2.98h-2.13l-.64,2.98h-1.7ZM721.52,101.38h1.7l-.85-5.1-.85,5.1Z"/>
        <path class="st24" d="M728.77,105.63v-11.91h2.13c1.27,0,2.22.25,2.86.74.64.49.96,1.31.96,2.45,0,.71-.13,1.3-.38,1.78s-.62.81-1.11.98l1.91,5.95h-1.69l-1.71-5.53h-1.27v5.53h-1.7ZM730.47,98.83h.42c.71,0,1.24-.15,1.59-.45.35-.3.53-.79.53-1.47s-.18-1.17-.53-1.47c-.35-.3-.89-.45-1.59-.45h-.42v3.83Z"/>
        <path class="st24" d="M739.44,105.63v-10.39h-2.13v-1.51h5.95v1.51h-2.13v10.39h-1.7Z"/>
        <path class="st24" d="M746.23,105.63v-11.91h1.7v11.91h-1.7Z"/>
        <path class="st24" d="M754.85,105.75c-.5,0-.94-.07-1.32-.21-.38-.14-.69-.34-.94-.59-.24-.25-.44-.56-.6-.94s-.26-.77-.32-1.2c-.06-.42-.09-.91-.09-1.44v-3.4c0-.54.03-1.02.09-1.44.06-.43.17-.83.32-1.2s.35-.69.6-.93c.24-.25.56-.44.94-.58.38-.14.82-.21,1.32-.21.55,0,1.03.08,1.43.25.4.16.73.41.97.72.24.32.42.69.54,1.11.12.42.19.91.22,1.47,0,.08,0,.21,0,.39h-1.7v-.38c0-.24-.01-.44-.03-.6s-.04-.34-.07-.52c-.03-.18-.09-.32-.16-.44-.07-.12-.16-.23-.26-.33-.1-.1-.24-.17-.4-.22-.16-.05-.35-.07-.56-.07-.27,0-.51.04-.71.13-.2.09-.35.2-.46.34-.11.14-.2.33-.26.56s-.1.46-.12.69-.03.5-.03.83v4.25c0,.28.01.54.04.77.02.23.07.46.14.69s.16.42.28.57c.11.16.26.28.45.37.19.1.41.14.66.14s.47-.05.65-.15c.18-.1.32-.22.43-.37s.19-.34.25-.58c.06-.23.1-.46.12-.68s.03-.48.03-.77v-.43h1.7v.43c0,.62-.05,1.16-.16,1.62-.11.47-.28.88-.53,1.23-.24.36-.57.63-.98.81-.41.19-.91.28-1.5.28Z"/>
        <path class="st24" d="M761.27,105.63v-11.91h1.7v11.91h-1.7Z"/>
        <path class="st24" d="M769.89,105.75c-.5,0-.94-.07-1.32-.21-.38-.14-.69-.34-.94-.59-.24-.25-.44-.56-.6-.94s-.26-.77-.32-1.2c-.06-.42-.09-.91-.09-1.44v-3.4c0-.54.03-1.02.09-1.44.06-.43.17-.83.32-1.2s.35-.69.6-.93c.24-.25.56-.44.94-.58.38-.14.82-.21,1.32-.21.55,0,1.03.08,1.43.25.4.16.73.41.97.72.24.32.42.69.54,1.11.12.42.19.91.22,1.47,0,.08,0,.21,0,.39h-1.7v-.38c0-.24-.01-.44-.03-.6s-.04-.34-.07-.52c-.03-.18-.09-.32-.16-.44-.07-.12-.16-.23-.26-.33-.1-.1-.24-.17-.4-.22-.16-.05-.35-.07-.56-.07-.27,0-.51.04-.71.13-.2.09-.35.2-.46.34-.11.14-.2.33-.26.56s-.1.46-.12.69-.03.5-.03.83v4.25c0,.28.01.54.04.77.02.23.07.46.14.69s.16.42.28.57c.11.16.26.28.45.37.19.1.41.14.66.14s.47-.05.65-.15c.18-.1.32-.22.43-.37s.19-.34.25-.58c.06-.23.1-.46.12-.68s.03-.48.03-.77v-.43h1.7v.43c0,.62-.05,1.16-.16,1.62-.11.47-.28.88-.53,1.23-.24.36-.57.63-.98.81-.41.19-.91.28-1.5.28Z"/>
        <path class="st24" d="M775.49,105.63l2.55-11.91h1.7l2.55,11.91h-1.7l-.64-2.98h-2.13l-.64,2.98h-1.7ZM778.04,101.38h1.7l-.85-5.1-.85,5.1Z"/>
        <path class="st24" d="M788.18,105.75c-.5,0-.94-.07-1.32-.21-.38-.14-.69-.34-.94-.59-.24-.25-.44-.56-.6-.94s-.26-.77-.32-1.2c-.06-.42-.09-.91-.09-1.44v-3.4c0-.54.03-1.02.09-1.44.06-.43.17-.83.32-1.2s.35-.69.6-.93c.24-.25.56-.44.94-.58.38-.14.82-.21,1.32-.21.55,0,1.03.08,1.43.25.4.16.73.41.97.72.24.32.42.69.54,1.11.12.42.19.91.22,1.47,0,.08,0,.21,0,.39h-1.7v-.38c0-.24-.01-.44-.03-.6s-.04-.34-.07-.52c-.03-.18-.09-.32-.16-.44-.07-.12-.16-.23-.26-.33-.1-.1-.24-.17-.4-.22-.16-.05-.35-.07-.56-.07-.27,0-.51.04-.71.13-.2.09-.35.2-.46.34-.11.14-.2.33-.26.56s-.1.46-.12.69-.03.5-.03.83v4.25c0,.28.01.54.04.77.02.23.07.46.14.69s.16.42.28.57c.11.16.26.28.45.37.19.1.41.14.66.14s.47-.05.65-.15c.18-.1.32-.22.43-.37s.19-.34.25-.58c.06-.23.1-.46.12-.68s.03-.48.03-.77v-.43h1.7v.43c0,.62-.05,1.16-.16,1.62-.11.47-.28.88-.53,1.23-.24.36-.57.63-.98.81-.41.19-.91.28-1.5.28Z"/>
        <path class="st24" d="M793.77,105.63l2.55-11.91h1.7l2.55,11.91h-1.7l-.64-2.98h-2.13l-.64,2.98h-1.7ZM796.32,101.38h1.7l-.85-5.1-.85,5.1Z"/>
        <path class="st24" d="M806.58,105.75c-.6,0-1.11-.09-1.54-.27s-.77-.45-1.02-.8-.44-.76-.55-1.23c-.11-.47-.17-1.02-.17-1.64v-4.32c0-.62.06-1.17.17-1.63.12-.46.3-.87.55-1.21.25-.34.59-.6,1.02-.77.43-.17.94-.26,1.54-.26,1.16,0,2,.33,2.51,1,.51.66.77,1.63.77,2.88v4.32c0,.62-.06,1.16-.18,1.63-.12.47-.3.88-.55,1.23-.25.35-.59.62-1.02.8-.43.18-.94.28-1.53.28ZM805.34,103.82c.23.36.64.54,1.24.54s1.01-.18,1.24-.54c.23-.36.34-.89.34-1.59v-5.17c0-.69-.11-1.21-.34-1.55-.23-.34-.64-.51-1.24-.51s-1.02.17-1.24.51c-.23.34-.34.86-.34,1.55v5.17c0,.7.11,1.23.34,1.59Z"/>
      </g>
    </g>
  </g>
</svg>
