<?xml version="1.0" encoding="UTF-8"?>
<svg xmlns="http://www.w3.org/2000/svg" version="1.1" xmlns:cc="http://creativecommons.org/ns#" xmlns:dc="http://purl.org/dc/elements/1.1/" xmlns:inkscape="http://www.inkscape.org/namespaces/inkscape" xmlns:rdf="http://www.w3.org/1999/02/22-rdf-syntax-ns#" xmlns:sodipodi="http://sodipodi.sourceforge.net/DTD/sodipodi-0.dtd" xmlns:svg="http://www.w3.org/2000/svg" viewBox="0 0 4096 4096">
  <!-- Generator: Adobe Illustrator 30.0.0, SVG Export Plug-In . SVG Version: 2.1.1 Build 123)  -->
  <defs>
    <style>
      .st0 {
        fill: #1d1d1b;
        fill-rule: evenodd;
      }
    </style>
  </defs>
  <g id="svg2" inkscape:export-filename="G:\Users\suitedoalex\sites\banco-do-brasil-logo-0.png" sodipodi:docname="banco-do-brasil-logo.svg">
    <g id="g10" inkscape:groupmode="layer" inkscape:label="banco-do-brasil-logo">
      <path id="path214" class="st0" d="M270.08,2231.66l51.89-35.31,51.91,35.31-103.8,70.65v-70.65ZM768.29,1864.34l-51.9,35.32-51.89-35.32,103.79-70.65v70.65ZM768.29,2132.77l-249.1,169.54-249.11-169.54,295.82-201.34,51.9,35.33-238.72,162.47,145.3,98.89,67.47-45.92-51.9-35.31,124.55-84.78,103.79,70.65ZM270.08,1963.23l249.11-169.54,249.1,169.54-295.82,201.33-51.9-35.32,238.72-162.48-145.3-98.89-67.48,45.92,51.9,35.31-124.54,84.77-103.8-70.64Z" inkscape:connector-curvature="0" inkscape:export-filename="G:\Users\suitedoalex\sites\banco-do-brasil-logo-5.png" inkscape:export-xdpi="135.86958" inkscape:export-ydpi="135.86958"/>
      <path id="path216" class="st0" d="M951.55,2017.24v-86.66h30.01c27.24,0,46.48,18.31,46.48,43.19,0,32.86-24.56,43.19-42.2,43.19h-28.12l-6.17.28ZM968.23,2069.08h10.67c40.59,0,53.42,18.3,53.42,48.35,0,47.42-38.47,47.89-55.56,47.89h-25.21v-95.71l16.68-.52ZM1441.49,2217.4v-185.02l75.64,185.02h81.5v-277.42h-58.71v179.37l-73.56-179.37h-83.5v277.42h58.63ZM1729.84,2225.56c60.01,0,95.09-24.3,95.09-99.94h-68.28c-.87,22.34-1.23,57.61-26.81,57.61-29.06,0-33.28-17.91-33.28-103.86s6.64-103.87,31.95-103.87c18.23,0,26.41,14.11,26.41,51.74h67.86c2.55-60.75-30.52-94.07-95.94-94.07-97.45,0-100.3,63.22-100.3,146.2s-2.49,146.19,103.28,146.19h0ZM1187.34,2217.4l17.08-61.48h73.29l16.66,61.48h72.45l-81.61-277.42h-82.87l-83.29,277.42h68.29ZM1266.88,2113.27h-52.48l25-113.51,27.49,113.51ZM1950.96,2183.23c-30.95,0-34.95-31.36-34.95-103.86s4-103.87,34.95-103.87,34.96,31.37,34.96,103.87-4.01,103.86-34.96,103.86ZM1950.96,2225.56c105.77,0,105.77-72.12,105.77-146.19s0-146.2-105.77-146.2-105.75,71.34-105.75,146.2,0,146.19,105.75,146.19ZM3635.54,2217.4v-277.42h-69.13v277.42h69.13ZM3825.92,2217.4v-41.95h-80.68v-235.47h-69.13v277.42h149.81ZM2780.95,2217.4c32.57,0,113.47-3.76,113.47-89.67,0-46.47-14.25-78.87-68.7-85.9,41.73-8.45,62.58-36.63,62.58-75.58,0-72.3-48.33-87.79-106.84-87.79h-136.35v338.95h135.84ZM2728.86,2017.69v-86.65h40.48c22.18,0,37.85,18.31,37.85,43.18,0,32.87-20.02,43.19-34.37,43.19h-22.92l-21.05.31v-.03ZM2749.94,2069.53h17.23c33.06,0,43.5,18.3,43.5,48.35,0,47.41-31.32,47.88-45.24,47.88h-36.57v-95.71l21.08-.52ZM2200.73,1982.3h28.07c37.79,0,37.79,45.1,37.79,96.36,0,69.77-6.47,96.36-39.58,96.36h-26.28v-192.72ZM2131.87,2217.34h103.26c108.31,0,101.17-97.9,101.17-140.69,0-86.73-15.53-137.61-98.64-137.61h-105.78v278.3ZM2467.81,2183.35c-30.97,0-34.98-31.23-34.98-103.42s4.01-103.43,34.98-103.43,34.99,31.23,34.99,103.43-4.01,103.42-34.99,103.42ZM2467.81,2225.49c105.82,0,105.82-71.81,105.82-145.56s0-145.57-105.82-145.57-105.82,71.03-105.82,145.57,0,145.56,105.82,145.56ZM3257.07,2113.36h-52.47l24.98-113.52,27.49,113.52ZM3449.18,2217.34c45.49,0,91.57-6.18,91.57-78.03,0-82.96-117.76-74.68-117.76-127.33,0-19.21,11.46-29.58,30.85-29.58h63.03v-42.7h-88.55c-72.8,0-90.79,33.52-90.79,76.95,0,82.61,130.5,80.67,130.5,127.13,0,18.83-9.9,31.51-30.08,31.51h-93.36l-69.2-235.4h-82.87l-76.58,252.49-48.06-108.53c35.24-6.72,49.24-29.52,49.37-71.34,0-47.27-27.48-72.62-70.37-72.62h-129.59v277.42h70.86v-234.78h23.5c19.99,0,37.35,14.89,37.35,42.16,0,23.13-11.35,42.1-29.58,40.91l-19.71.31,64.5,151.42h113.32l17.08-61.48h73.29l16.66,61.48,164.62.04v-.02ZM1003.76,2217.37c32.55,0,113.45-3.75,113.45-89.67,0-46.47-14.24-78.86-68.69-85.91,41.73-8.45,62.58-36.61,62.58-75.58,0-72.29-48.34-87.78-106.84-87.78h-136.35v338.95h135.85Z" inkscape:connector-curvature="0" inkscape:export-filename="G:\Users\suitedoalex\sites\banco-do-brasil-logo-5.png" inkscape:export-xdpi="135.86958" inkscape:export-ydpi="135.86958"/>
    </g>
  </g>
</svg>