<?xml version="1.0" encoding="UTF-8"?>
<svg xmlns="http://www.w3.org/2000/svg" version="1.1" xmlns:cc="http://creativecommons.org/ns#" xmlns:dc="http://purl.org/dc/elements/1.1/" xmlns:inkscape="http://www.inkscape.org/namespaces/inkscape" xmlns:rdf="http://www.w3.org/1999/02/22-rdf-syntax-ns#" xmlns:sodipodi="http://sodipodi.sourceforge.net/DTD/sodipodi-0.dtd" xmlns:svg="http://www.w3.org/2000/svg" viewBox="0 0 700 700">
  <!-- Generator: Adobe Illustrator 30.0.0, SVG Export Plug-In . SVG Version: 2.1.1 Build 123)  -->
  <defs>
    <style>
      .st0 {
        fill: #1d1d1b;
        fill-rule: evenodd;
      }
    </style>
  </defs>
  <g id="svg5259" inkscape:export-filename="C:\Users\suitedoalex\sites\caixa-logo-0.png" sodipodi:docname="caixa-logo-2023.svg">
    <sodipodi:namedview id="base" bordercolor="#666666" borderopacity="1.0" inkscape:current-layer="layer1" inkscape:cx="-106.84538" inkscape:cy="174.05708" inkscape:document-units="mm" inkscape:pageopacity="0.0" inkscape:pageshadow="2" inkscape:window-height="1017" inkscape:window-maximized="1" inkscape:window-width="1920" inkscape:window-x="-8" inkscape:window-y="-8" inkscape:zoom="0.59323699" pagecolor="#ffffff" showgrid="false" units="px"/>
    <g id="layer1" inkscape:groupmode="layer" inkscape:label="Camada 1">
      <g id="g698-2-1" inkscape:export-xdpi="64.416962" inkscape:export-ydpi="64.416962">
        <path id="path700-4-2" class="st0" d="M351.39,415.38h56.67l62.13-62.12h-56.68l-62.12,62.12Z" inkscape:connector-curvature="0"/>
        <path id="path702-5-0" class="st0" d="M481.95,284.83l-24.58,24.58,19.13,37.54,62.12-62.12h-56.67Z" inkscape:connector-curvature="0"/>
        <path id="path704-5-2" class="st0" d="M322.82,284.83h47.42l-20.71,130.55h-47.42l20.71-130.55Z" inkscape:connector-curvature="0"/>
        <path id="path706-2-2" class="st0" d="M238.48,368.19l-2.33-23.93c-.55-5.65-2.24-14.13-2.13-20.18h0l-16.25,44.11h20.71ZM199.21,415.38h-50.14l66.02-130.56h52.45l25.97,130.56h-50.25l-1.79-16.28h-35.85l-6.41,16.28Z" inkscape:connector-curvature="0" sodipodi:nodetypes="cccccccccccccccc"/>
        <path id="path708-3-3" class="st0" d="M388.16,284.81h56.67s31.67,62.14,31.67,62.14h-56.67l-31.66-62.14Z" inkscape:connector-curvature="0"/>
        <path id="path710-6-0" class="st0" d="M593.02,368.19l-2.33-23.93c-.55-5.65-2.24-14.13-2.13-20.18h0l-16.25,44.11h20.71ZM553.75,415.38h-50.14l66.02-130.56h52.45l25.97,130.56h-50.26l-1.79-16.28h-35.84l-6.42,16.28Z" inkscape:connector-curvature="0" sodipodi:nodetypes="cccscccccccccccc"/>
        <path id="path712-5-3" class="st0" d="M156.37,337.7c-6.42-7.04-15.04-13.14-25.75-13.14-14.21,0-27.56,11.25-29.86,25.44-2.21,14.41,8.3,25.44,22.5,25.44,10.92,0,20.28-4.62,29.11-12.08l-9.15,48.87c-8.2,3.57-26.07,5.15-34.59,5.15-37.2,0-61.71-28.91-55.83-66.12,6-38.16,40.8-68.65,79.06-68.65,10.72,0,21.54,2,31,5.36l-6.5,49.72Z" inkscape:connector-curvature="0"/>
        <path id="path714-4-9" class="st0" d="M432.65,390.8l37.54-37.54,31.65,62.12h-56.67l-12.53-24.58Z" inkscape:connector-curvature="0"/>
      </g>
    </g>
  </g>
</svg>