<?xml version="1.0" encoding="UTF-8"?>
<svg xmlns="http://www.w3.org/2000/svg" version="1.1" xmlns:cc="http://creativecommons.org/ns#" xmlns:dc="http://purl.org/dc/elements/1.1/" xmlns:inkscape="http://www.inkscape.org/namespaces/inkscape" xmlns:rdf="http://www.w3.org/1999/02/22-rdf-syntax-ns#" xmlns:sodipodi="http://sodipodi.sourceforge.net/DTD/sodipodi-0.dtd" xmlns:svg="http://www.w3.org/2000/svg" viewBox="0 0 4096 4096">
  <!-- Generator: Adobe Illustrator 30.0.0, SVG Export Plug-In . SVG Version: 2.1.1 Build 123)  -->
  <g id="svg2" inkscape:export-filename="G:\Users\suitedoalex\sites\banco-do-brasil-logo-0.png" sodipodi:docname="banco-do-brasil-logo.svg">
    <g>
      <path d="M1741.73,955.1c-35.44-21.48-139.83-64.01-140.48-113.64-1.03-78.05,111.55-53.46,122.98-61.57,7.99-5.66-50.87-50.34-44.63-88.92,22.97-142.13,370.82-125.16,391.59-4.46,14.44,83.92-103.41,22.43,82.46,128.14,73.11-100.79,214.55-17.33,131.75,45.35-50.79,38.45-134.61-54.5-140.95-.84-6.34,53.7,81.67,1.3,124.1,50.6,65.83,76.5-157.03,142.11-204.52,149.95-71.99,11.88-211.29-70.98-148.36,94.36,8.26,21.7,94.87,28.88,112.72,13.18,29.2-25.68-14.65-101.53,107.63-108.16,169.32-9.18,105.82,258.61,227.02,88.98,34.35,7.93,1.85,148.24-19.23,155.84-76.36,27.51-110.06-113.35-181.97-121.19-17.53,126.36,24.42,70.46,52.28,87.61,5.61,3.45-45.12,33.44-48.52,83.25-17.29,253.12,75.16,122.36,258.65,144.05v-455.03c-102.16,199.62-206.29,29.61-157.38-17.42,7.26-6.98,53.62,21.61,77.08,16.38,32.46-7.23-.67-74.29,72.34-86.03,137.45-22.11,91.42,56.09,134.51,75.58,42.19,19.08,154.97-53.09,39.38,116.43l-96.4-104.89c-48.54,13.36-17.02,33.66-17.02,43.7v411.27h883.8l26.25,26.25v708.79h-761.3c-157.38,0-868.72-253.38-878.45-448.87-2.96-59.53,135.73-191.73,73.12-216.47-30.37-12-225.19,92.17-261.69,123.35-297.96,254.56,48.89,465.34,288.22,541.99h-358.77c-16.92,0-166.08-174.4-175.65-209.33-40.4-147.57,20-269.5,150.82-340.53l339.79-150.62c-228,25.08-928.29,244.85-967.91,503.89-28.01,183.17,252.78,211.6-125.85,196.59v-708.79l26.25-26.25h1093.82l9.3-438.45c-69.03,35.9-514.45-67.38-324.16-165.59,149.67-77.25,125.56,104.97,130.8,115.13,28.79,55.87,194.98,27.81,201.46-9.97.96-5.6-67.27-20.84-104.9-43.65,151.26,53.09,154.35-180.38,17.67-174.97,68.9,88.18-112.37,141.73-17.67,174.97ZM1916.84,955.13c166.38-20.47,107.86-24,73.57-100.06-3.29-7.3-25.97-173.58-74.78-46.6-10.56,27.48,9.19,108.92,1.21,146.66ZM1916.9,1007.34c133.88,47.11,194.11,42.74,209.39-113.75l-209.39,113.75ZM2126.64,1182.71c-134.29,43.9-60.59,193.95-209.69,104.92l25.92,314.52c292.5-64.94,144.86-196.85,183.77-419.44ZM1978,1200.11v17.5l8.75-8.75-8.75-8.75ZM1925.49,1235.11v17.5l8.75-8.75-8.75-8.75Z"/>
      <path d="M1881.74,2713.95c-208.7,54.55-235.06,51.14-279.78-166.13-30.47,274.44-161.98,244.93-175.46-17.52l-63.28,208.35c-43.09-26.75-128.36,10-153.12.66-30.79-11.6-5.25-109.26-160.78-70.51-47.9,11.94-14.24,53.65-53.82,70.01-63.21,26.13-287.34-.94-336.71-79.47-154.13-245.16,206.11-439.55,275.35-292.88,70.06,148.4-68.73,56.29-107.13,61.57-110.49,15.2-112.92,207.44,13.3,208.84,156.91,1.74,158.18-277.57,185.87-297.15,8.15-5.77,141.2-6.23,152.89.6,16.48,9.62,79.06,277.47,98.9,277.59,48.27.29-4.07-381.17,166.92-271.99,44.73,28.56,22.91,188.22,86.72,184.34,10.52-81.28,17.68-222.02,131.05-192.99,73.91,18.92,60.61,268.7,79.58,341.58,6.58,25.28-13.9,31.23,34.52,26.36v-323.77c0-73.5,42.64-36.92,105.01-43.75v376.27ZM1146.61,2582.59l-52.19-122.27-35.14,122.27h87.32Z"/>
      <path d="M1916.74,2363.93c65.28-147.14,243.5,148.08,279.81,183.75l.1-210.1c15.85,3.56,105.11-5.16,105.11.1v402.52c-119.42,64.3-211.44-207.43-253.87-209.91-22.37-1.31,5.07,164.34-16.32,193.4-24.72,33.58-114.83,15.55-114.83-9.75v-350.02Z"/>
      <path d="M3151.1,2534.76c0,116.44-94.39,210.83-210.83,210.83s-210.83-94.39-210.83-210.83,94.39-210.83,210.83-210.83,210.83,94.39,210.83,210.83ZM3041.31,2532.59c0-55.66-45.12-100.79-100.79-100.79s-100.79,45.12-100.79,100.79,45.12,100.79,100.79,100.79,100.79-45.12,100.79-100.79Z"/>
      <path d="M2704.29,2713.95c-13.7,31.97-76.1,38.98-97.13,9.58-51.61-72.13,84.18-174.16-147.97-140.93l-28.38,156.31c-145.56,56.51-96.09-380.25-77.68-393.58,14.3-10.35,102.06-11.87,106.23-7.74,21.7,21.49-70.27,202.22,130.98,140.25,23.69-7.29-68.93-189.4,113.95-140.15-17.7,78.9,23.82,320.71,0,376.27Z"/>
      <path d="M3264.43,2425.3c26.36,83.72,152.46,41.33,172,152.91,36.43,208.07-281.71,189.21-293.55,98.55-17.38-132.99,197.11,23.64,191.04-67.82-2.71-40.9-222.99-35.73-167.27-202.11,70.79-211.39,465.52,52.02,97.79,18.46Z"/>
      <path d="M709.17,3125.22v-280.02c315.18-66.11,315.38,346.05,0,280.02ZM779.28,3090.13c125.81,14.49,128.53-247.76-.01-209.98v209.98Z"/>
      <path d="M2196.76,2845.21c8.88-8.87,221.45-26.93,210.83,77.9-5.43,53.63-86.69,70.72-87.95,88.34-1.02,14.19,110.59,78.01,87.02,131.17l-131.24-122.31c29.95,105.77-78.66,125.49-78.66,104.91,0-39.73-9.9-270.12,0-280.02ZM2336.66,2880.31c-47.4-45.89-102.54,51.22-69.79,87.32,33.44,36.85,99.25-58.8,69.79-87.32Z"/>
      <path d="M2844.3,2845.21c60.02-69.25,128.48,159.31,174.8,175l.29-175.1,52.42.1v280.02c-106.77,28.66-89.32-129.78-174.8-175l-.29,175.1-52.42-.1v-280.02Z"/>
      <path d="M1173.02,2837.04c188.1-1.26,177.99,307.39-.05,307.85-169.24.44-182.65-306.63.05-307.85ZM1140.48,2882.13c-52.44,24.45-51.85,238.54,47.33,222.24,103.87-17.07,85.17-284-47.33-222.24Z"/>
      <path d="M3351.72,2775.31l-52.38,69.48c56.99-8.97,133.48,268.87,122.39,280.32-33.45,34.52-68.23-47.32-82.69-52.45-100.53-35.69-116.12,69.51-135.98,69.65-57.19.4,44.6-215.61,54.37-244.53,20.72-61.29-46.03-119.88,94.28-122.46ZM3334.23,3037.6l-26.05-104.79-43.77,104.78h69.82Z"/>
      <path d="M2739.19,3125.11c-39.48,40.17-62.78-94.01-157.15-43.23-28.87,15.53-32.03,105.29-87.7,34.06l88.45-269.74c84.93-63.39,168.78,266.31,156.39,278.91ZM2651.68,3037.61l-34.63-122.25-35.18,122.22,69.81.02Z"/>
      <path d="M2001.75,2847.93l89.92,277.16c-94.86,24.83-57.86-44.53-79.71-53.58-92.74-38.39-125.25,71.6-138.98,70.79-55.99-3.32,45.09-357.45,128.77-294.37ZM2004.16,3037.59l-52.18-122.25-17.63,122.27,69.81-.02Z"/>
      <path d="M1584.22,2845.21l171.45,11.78c102.41,138.28-88.81,127.88-110.8,162.57-31.21,49.24,32.25,126.54-60.65,105.67v-280.02ZM1724.13,2949.97c31.7-50.8-65.06-91.8-87.29-69.65-41.96,41.8,53.85,123.25,87.29,69.65Z"/>
      <path d="M1464.08,782.15c35.96-18.23,143.24-2.65,119.96,59-31.48,83.32-193.26-21.84-119.96-59Z"/>
    </g>
  </g>
</svg>