<?xml version="1.0" encoding="UTF-8"?>
<svg xmlns="http://www.w3.org/2000/svg" version="1.1" xmlns:cc="http://creativecommons.org/ns#" xmlns:dc="http://purl.org/dc/elements/1.1/" xmlns:inkscape="http://www.inkscape.org/namespaces/inkscape" xmlns:rdf="http://www.w3.org/1999/02/22-rdf-syntax-ns#" xmlns:sodipodi="http://sodipodi.sourceforge.net/DTD/sodipodi-0.dtd" xmlns:svg="http://www.w3.org/2000/svg" viewBox="0 0 700 700">
  <!-- Generator: Adobe Illustrator 30.0.0, SVG Export Plug-In . SVG Version: 2.1.1 Build 123)  -->
  <defs>
    <style>
      .st0 {
        fill-rule: evenodd;
      }
    </style>
  </defs>
  <g id="Layer_1" inkscape:export-filename="C:\Users\suitedoalex\sites\correios-logo-0.png" sodipodi:docname="correios-logo.svg">
    <g>
      <sodipodi:namedview id="namedview57" bordercolor="#666666" borderopacity="1" gridtolerance="10" guidetolerance="10" inkscape:current-layer="Layer_1" inkscape:cx="44.878221" inkscape:cy="295.47052" inkscape:pageopacity="0" inkscape:pageshadow="2" inkscape:window-height="837" inkscape:window-maximized="1" inkscape:window-width="1600" inkscape:window-x="-8" inkscape:window-y="-8" inkscape:zoom="0.5303698" objecttolerance="10" pagecolor="#ffffff" showgrid="false"/>
      <path id="path11" class="st0" d="M54.77,430.03h-6.17c-4.94,0-9.41-2.31-12.34-6.02l-29.31-37.64c-.62-.93-1.08-2.01-1.08-3.24s.46-2.31,1.08-3.24l29.47-37.64c2.93-3.7,7.25-6.02,12.34-6.02h65.11l-37.03,46.44-27,34.1,4.94,13.27Z" inkscape:connector-curvature="0" inkscape:export-filename="C:\Users\suitedoalex\sites\correios-logo-4.png" inkscape:export-xdpi="55.894341" inkscape:export-ydpi="55.894341"/>
      <path id="path18" class="st0" d="M77.29,383.13l-.31-.46-27.15,34.1c-1.08,1.39-2.01,3.24-2.01,6.33s2.93,6.94,8.79,6.94h57.24l-36.56-46.9Z" inkscape:connector-curvature="0" inkscape:export-filename="C:\Users\suitedoalex\sites\correios-logo-4.png" inkscape:export-xdpi="55.894341" inkscape:export-ydpi="55.894341"/>
      <path id="path27" class="st0" d="M154.43,302.6l-4.94-13.27h6.17c4.94,0,9.41,2.31,12.34,6.02l29.47,37.64c.62.93,1.08,2.01,1.08,3.24s-.46,2.31-1.08,3.24l-29.62,37.64c-2.93,3.7-7.25,6.02-12.34,6.02h-65.11l37.03-46.44,27-34.1Z" inkscape:connector-curvature="0" inkscape:export-filename="C:\Users\suitedoalex\sites\correios-logo-4.png" inkscape:export-xdpi="55.894341" inkscape:export-ydpi="55.894341"/>
      <path id="path34" class="st0" d="M127.13,336.23l.31.46,27-34.1c1.08-1.39,2.01-3.24,2.01-6.33s-2.93-6.94-8.79-6.94h-57.24l36.72,46.9Z" inkscape:connector-curvature="0" inkscape:export-filename="C:\Users\suitedoalex\sites\correios-logo-4.png" inkscape:export-xdpi="55.894341" inkscape:export-ydpi="55.894341"/>
      <path id="path36" d="M155.98,301.98c1.08-1.39,1.7-2.93,1.7-4.78,0-4.32-3.55-7.87-7.87-7.87h-2.01c4.32,0,7.71,3.55,7.71,7.87,0,1.85-.62,3.55-1.7,4.78l-26.69,34.25-36.56,46.75,65.41-81Z" inkscape:connector-curvature="0" inkscape:export-filename="C:\Users\suitedoalex\sites\correios-logo-4.png" inkscape:export-xdpi="55.894341" inkscape:export-ydpi="55.894341"/>
      <path id="path38" d="M48.44,417.38c-1.08,1.39-1.7,2.93-1.7,4.78,0,4.32,3.55,7.87,7.87,7.87h2.01c-4.32,0-7.87-3.55-7.87-7.87,0-1.85.62-3.55,1.7-4.78l26.84-34.25,36.56-46.75-65.41,81Z" inkscape:connector-curvature="0" inkscape:export-filename="C:\Users\suitedoalex\sites\correios-logo-4.png" inkscape:export-xdpi="55.894341" inkscape:export-ydpi="55.894341"/>
      <path id="path40" d="M442.78,355.36c-3.7,0-6.63.46-9.72,1.39-4.94,1.54-8.64,4.17-11.42,7.87-4.78,6.17-4.63,13.58-4.63,13.58v51.53h13.73c.93,0,1.54-.77,1.54-1.54v-48.91c0-.93.15-4.32,2.01-6.02,1.54-1.39,3.55-2.01,5.55-2.31,2.16-.31,4.32-.15,5.4,0h.31c1.08,0,1.85-.62,2.31-1.39l7.1-12.19c-3.7-1.39-7.71-2.16-12.19-2.01" inkscape:connector-curvature="0" inkscape:export-filename="C:\Users\suitedoalex\sites\correios-logo-4.png" inkscape:export-xdpi="55.894341" inkscape:export-ydpi="55.894341"/>
      <path id="path42" d="M402.36,355.36c-3.7,0-6.79.46-9.72,1.39-4.94,1.54-8.64,4.17-11.42,7.87-4.78,6.17-4.63,13.58-4.63,13.58v51.53h13.73c.93,0,1.54-.77,1.54-1.54v-48.91c0-.93.15-4.32,2.01-6.02,1.54-1.39,3.55-2.01,5.55-2.31,2.16-.31,4.32-.15,5.4,0h.31c.93,0,1.85-.62,2.31-1.39l7.25-12.34c-4.01-1.23-7.87-2.01-12.34-1.85" inkscape:connector-curvature="0" inkscape:export-filename="C:\Users\suitedoalex\sites\correios-logo-4.png" inkscape:export-xdpi="55.894341" inkscape:export-ydpi="55.894341"/>
      <path id="path44" d="M282.33,410.75c-.46-.62-1.39-1.08-2.31-1.08-.46,0-1.08.15-1.39.46h0c-4.63,2.78-10.18,4.47-16.05,4.47-17.28,0-31.32-14.04-31.32-31.47s14.04-31.32,31.32-31.32c5.86,0,11.42,1.54,16.05,4.47.46.31.93.46,1.54.46.93,0,1.7-.46,2.31-1.08l7.87-10.18c-7.71-5.71-17.28-9.1-27.77-9.1-25.92,0-46.9,20.98-46.9,46.9s20.98,46.9,46.9,46.9c10.34,0,19.9-3.39,27.77-9.1l-8.02-10.34Z" inkscape:connector-curvature="0" inkscape:export-filename="C:\Users\suitedoalex\sites\correios-logo-4.png" inkscape:export-xdpi="55.894341" inkscape:export-ydpi="55.894341"/>
      <path id="path46" d="M490.76,369.09h0c10.18,0,18.82,6.63,21.91,15.74h-43.66c3.09-9.1,11.73-15.74,21.75-15.74M490.76,354.28c-20.83,0-37.8,16.97-37.8,37.8s16.97,37.64,37.8,37.8h1.08c8.18,0,14.81-1.08,23.6-6.79l1.39-.93s-7.71-10.03-7.87-10.18c-.46-.62-1.39-1.08-2.16-1.08-.46,0-.93.15-1.39.31-2.01,1.08-8.02,3.7-14.66,3.7-10.03,0-18.51-6.33-21.75-15.27h57.86c.93,0,1.54-.77,1.54-1.54l.15-4.32v-1.7c.15-20.83-16.82-37.8-37.8-37.8h0Z" inkscape:connector-curvature="0" inkscape:export-filename="C:\Users\suitedoalex\sites\correios-logo-4.png" inkscape:export-xdpi="55.894341" inkscape:export-ydpi="55.894341"/>
      <path id="path48" d="M539.05,430.03c-.93,0-1.54-.62-1.54-1.54v-70.2c0-.77.62-1.54,1.54-1.54h12.19c.93,0,1.54.77,1.54,1.54v70.2c0,.93-.77,1.54-1.54,1.54h-12.19Z" inkscape:connector-curvature="0" inkscape:export-filename="C:\Users\suitedoalex\sites\correios-logo-4.png" inkscape:export-xdpi="55.894341" inkscape:export-ydpi="55.894341"/>
      <path id="path50" d="M330.93,368.78h0c-12.65,0-22.83,10.18-22.83,22.83s10.18,22.83,22.83,22.83,22.83-10.18,22.83-22.83-10.18-22.83-22.83-22.83M330.93,430.03c-21.14,0-38.26-17.13-38.26-38.26s17.13-38.26,38.26-38.26,38.26,17.13,38.26,38.26-17.13,38.26-38.26,38.26Z" inkscape:connector-curvature="0" inkscape:export-filename="C:\Users\suitedoalex\sites\correios-logo-4.png" inkscape:export-xdpi="55.894341" inkscape:export-ydpi="55.894341"/>
      <path id="path52" d="M598.45,369.4h0c-12.5,0-22.68,10.18-22.68,22.68s10.18,22.52,22.68,22.52,22.68-10.18,22.68-22.52-10.18-22.68-22.68-22.68M598.45,429.88c-20.98,0-37.95-16.97-37.95-37.95s16.97-37.95,37.95-37.95,37.95,16.97,37.95,37.95-16.97,37.95-37.95,37.95Z" inkscape:connector-curvature="0" inkscape:export-filename="C:\Users\suitedoalex\sites\correios-logo-4.png" inkscape:export-xdpi="55.894341" inkscape:export-ydpi="55.894341"/>
      <path id="path54" d="M679.45,386.22c-2.62-1.23-6.02-2.01-9.72-2.93-5.4-1.39-10.49-1.7-12.34-4.63-1.7-2.78-.77-5.86,1.54-7.56,5.4-3.7,12.65-2.16,16.66-.31.77.31,3.7,2.01,3.7,2.01.46.31.93.46,1.39.46.93,0,1.7-.46,2.31-1.23l7.71-9.87-1.23-1.08c-.77-.62-1.85-1.23-2.93-1.85-2.31-1.23-9.26-5.25-19.29-5.25h-.93c-22.06.46-25.15,16.05-25.15,21.6,0,8.33,4.32,14.35,10.8,18.05,5.25,2.93,14.97,4.63,19.9,6.17,2.62.77,4.47,2.62,5.25,4.32.31.77.46,1.54.46,2.47.15,2.93-1.39,6.17-5.71,7.56-4.78,1.39-12.19.77-18.98-4.47-.15-.15-.93-.77-1.23-.93s-.62-.15-1.08-.15c-.93,0-1.7.46-2.31,1.23-.15.15-7.56,9.72-7.56,9.72,0,0,2.62,2.16,3.55,2.78,4.32,3.24,12.03,7.56,22.06,7.56h.31c21.29,0,26.23-15.12,26.23-23.45s-5.09-16.51-13.42-20.21" inkscape:connector-curvature="0" inkscape:export-filename="C:\Users\suitedoalex\sites\correios-logo-4.png" inkscape:export-xdpi="55.894341" inkscape:export-ydpi="55.894341"/>
    </g>
  </g>
</svg>