<?xml version="1.0" encoding="UTF-8"?>
<svg id="Camada_1" xmlns="http://www.w3.org/2000/svg" version="1.1" viewBox="0 0 2500 2500">
  <!-- Generator: Adobe Illustrator 30.0.0, SVG Export Plug-In . SVG Version: 2.1.1 Build 123)  -->
  <defs>
    <style>
      .st0 {
        fill: #1d1d1b;
        fill-rule: evenodd;
      }
    </style>
  </defs>
  <path class="st0" d="M110.55,1226.86h2270.89v146.66H110.55v-146.66Z"/>
  <path class="st0" d="M110.98,1137.28v-383.96h473.44c153.6,0,263.38,69.97,263.38,189.36s-86.63,194.6-267.59,194.6H110.98ZM491.55,1038.9c58.92,0,93.37-50.21,93.37-88.8s-30.83-85.11-91.85-85.11h-128.75v173.98s68.32-.06,127.23-.06h0ZM1262.61,848.51l-173.69,289.3h-241.83l229.23-386.15h372.3l230.02,386.15h-508.82l60.35-100.58h145.68l-113.23-188.72h0ZM1975.31,1136.66h-250.84v-384.85h663.96v112.15h-413.13v68.71h405.94v108.71h-405.94v95.28h0Z"/>
  <g>
    <path class="st0" d="M1188.54,1583.77c14.73-10.69,24.29-25.33,24.29-46.13,0-33.25-22.44-59.45-55.17-61.48l-92.54.05.16,163.51h54.43l-.12-37.95,18.52-.08,21.61,37.98h60.01l-31.19-55.9ZM1141.2,1559.98l-21.56.05v-42.55h21.56c11.74.77,20.63,10.9,19.86,22.64-.7,10.67-9.19,19.16-19.86,19.86ZM426.3,1475.77l-92.53.03v163.67h54.45v-38.86l38.14.16c34.51-2.4,60.54-32.33,58.14-66.84-2.17-31.19-27.01-56-58.21-58.14h0ZM409.86,1558.82l-21.56.05v-42.55h21.52c11.23.7,19.98,10.01,19.99,21.26,0,11.28-8.82,20.53-19.95,21.24ZM950.9,1475.98l-56.52,100.84c-2.14,4.23-4.5,6.23-4.5,6.23-13.64,12.69-34.99,11.91-47.68-1.73-12.69-13.64-11.91-34.99,1.73-47.68,13.64-12.69,34.99-11.91,47.68,1.73,2.68,2.88,4.83,6.2,6.36,9.82l28.88-52.59c-16.29-15.13-37.71-23.52-59.95-23.5-27.1-.02-52.71,12.43-69.41,33.77-4.46,5.68-8.21,11.88-11.17,18.47l-27.33,49.14c-6.42,11.83-16.76,20.57-31.04,20.57-18.62,0-33.72-15.1-33.71-33.73s15.1-33.72,33.73-33.71c13.83,0,26.26,8.45,31.35,21.31l28.81-52.09c-35.61-33.24-91.43-31.31-124.67,4.3-33.24,35.61-31.31,91.43,4.3,124.67,35.61,33.24,91.43,31.31,124.67-4.3,1.35-1.44,2.65-2.93,3.9-4.47l.83-1.7c16.12,20.8,39.92,34.88,68.3,34.98,31.92.16,59.14-15.81,74.94-39.77l4.58-6.96h49.09l-.36,39.9,54.24.35-.12-163.87h-96.92v.03h0ZM994.08,1558.77h-27.77l27.77-51.65v51.65Z"/>
    <path class="st0" d="M535.72,1476.46l-90.45,163.92h60.74l21.56-39.95h51.33v40.43h53.76v-164.35l-96.94-.05h0ZM578.88,1559.3h-28.65l28.65-51.35v51.35ZM172.89,1477.09h30.38l62.79,163.06h-30.58l-15.3-43.16h-65.11l-15.3,43.16h-29.45l62.59-163.06h0ZM162.84,1575.3h49.79l-24.44-70.11h-.69l-24.67,70.11ZM1406.92,1528.95c-4.81-18.74-16.93-32.45-40.69-32.45-34.93,0-49.54,30.86-49.54,62.14s14.62,62.11,49.54,62.11c25.36,0,39.29-18.97,41.59-42.71h27.86c-2.28,39.04-29.95,65.99-69.45,65.99-48.87,0-78.09-38.83-78.09-85.39s29.23-85.42,78.09-85.42c36.78.23,65.78,20.54,69.23,55.73h-28.55ZM1602.4,1558.64c0,46.56-29.23,85.39-78.09,85.39s-78.09-38.83-78.09-85.39,29.23-85.42,78.09-85.42,78.09,38.81,78.09,85.42h0ZM1474.73,1558.64c0,31.26,14.64,62.11,49.57,62.11s49.54-30.86,49.54-62.11-14.59-62.14-49.54-62.14-49.57,30.86-49.57,62.14ZM1623.4,1477.09h40.21l44.98,127.65h.45l43.82-127.65h39.75v163.06h-27.18v-125.82h-.45l-45.19,125.82h-23.54l-45.21-125.82h-.45v125.82h-27.18v-163.06h0ZM1822.33,1477.09h71.94c46.59,0,55.5,30.14,55.5,50.49s-8.92,50.23-55.5,50h-43.4v62.57h-28.55v-163.06h0ZM1850.88,1554.3h41.8c12.79,0,28.55-6.41,28.55-26.95s-13.02-26.95-28.09-26.95h-42.26v53.9h0ZM1995.46,1477.09h30.38l62.83,163.06h-30.62l-15.3-43.16h-65.11l-15.28,43.16h-29.45l62.57-163.06h0ZM1985.41,1575.3h49.8l-24.45-70.11h-.69l-24.67,70.11h0ZM2098.49,1477.09h30.14l74.45,120.13h.45v-120.13h27.18v163.06h-30.14l-74.25-119.89h-.67v119.89h-27.16v-163.06h0ZM2300.16,1576.22l-61.2-99.13h33.11l43.19,73.08,42.48-73.08h31.97l-60.97,99.13v63.93h-28.57v-63.93h0Z"/>
  </g>
</svg>