<?xml version="1.0" encoding="UTF-8"?>
<svg xmlns="http://www.w3.org/2000/svg" version="1.1" xmlns:cc="http://creativecommons.org/ns#" xmlns:dc="http://purl.org/dc/elements/1.1/" xmlns:inkscape="http://www.inkscape.org/namespaces/inkscape" xmlns:rdf="http://www.w3.org/1999/02/22-rdf-syntax-ns#" xmlns:sodipodi="http://sodipodi.sourceforge.net/DTD/sodipodi-0.dtd" xmlns:svg="http://www.w3.org/2000/svg" viewBox="0 0 4096 4096">
  <!-- Generator: Adobe Illustrator 30.0.0, SVG Export Plug-In . SVG Version: 2.1.1 Build 123)  -->
  <g id="svg2" inkscape:export-filename="G:\Users\suitedoalex\sites\banco-do-brasil-logo-0.png" sodipodi:docname="banco-do-brasil-logo.svg">
    <g>
      <g>
        <path d="M2234.22,1914.85c55.45,7.04,89.43,61.38,70.72,114.33-8.15,23.05-20.85,31.2-40.54,42.65-1.27.74-4.48.34-2.78,3.73.59,1.18,16.21,13.49,19.77,17.46,32.75,36.57,51.72,84.51,84.29,121.39l128.35-298.28c4.84-6.75,26.02-2.53,34.52-3.11l136.18,305.81h-44.91l-43.73-89.81-124.61.5-39.05,88.94-98.88.41c-26.46-31.1-62.5-118.05-103.06-129.43-11.3-3.17-22.86-1.45-34.32-1.83v131.21h-46.01v-303.98c32.63,3,72.31-4.03,104.07,0ZM2176.17,2046.07h42.72c3.25,0,17.68-5.05,21.51-6.96,29.98-15.02,28.93-66.6-2.24-80.06-16.99-7.34-43.4-5.98-61.98-7.02v94.04ZM2557.38,2087.62l-43.84-102.78-43.79,102.78h87.63Z"/>
        <path d="M1437.77,2103.01c-1.6-1.87-41.45-11.31-46.81-15.16-2.93-2.11-2.58-7.51,1.4-9.6,4.79-2.52,40.54-15.24,45.46-15.99,2.81-.43,3.81-.43,6.62,0,3.35.52,44.84,14.94,46.87,16.37,7.09,5.01-10.68,52.97-15.02,61.58-50.86,100.87-197.75,112.35-263.73,20.31-89.12-124.33,30.25-286.11,176.07-239.17,19.06,6.13,53.09,26.25,64.6,42.68,1.51,2.16,3.6,2.36,1.13,5.58-1.49,1.94-43.65,16.77-46.08,16.55-1.72-.16-22.42-14.9-29.6-17.69-85.31-33.11-170.2,44.8-143.49,132.3,25.67,84.11,139.95,101.93,190.43,30.4,3.06-4.33,15.83-23.88,12.17-28.15Z"/>
        <path d="M1567.1,1914.85v186.98c0,7.9,3.7,27.05,6.49,35.07,21.17,60.78,138.44,60.67,160.42.33,2.46-6.75,6.17-24.51,6.17-31.02v-191.35h46.01c-2.69,60.74,3.56,124.48.09,184.88-4.81,83.65-55.38,126.33-139.32,123.57-80.87-2.66-121.78-47.03-125.96-125.76-3.18-59.86,2.56-122.56.09-182.7h46.01Z"/>
        <path d="M2962.69,1914.85v197.92c0,79.07,129.73,93.24,163.07,31.56,2.39-4.43,7.81-18.72,7.81-22.82v-206.66h46.01v206.66c0,3.91-4.83,21.45-6.49,26.33-38.75,114.08-256.41,95.33-256.41-32.89v-200.1h46.01Z"/>
        <path d="M3988.01,2218.83h-44.91l-43.73-89.82-126.15,1.16-37.15,88.66h-46.01l128.15-304c2.86-3.46,32.14-3.57,35.09,0l134.72,304ZM3882.85,2087.62l-46.03-102.78-43.79,102.78h89.83Z"/>
        <path d="M3492.88,2218.83h-44.91l-43.73-89.82-126.15,1.17-37.16,88.66h-46.01l132.46-306.33c8.4,1.74,26.62-3.41,31.67,3.63l133.83,302.7ZM3387.71,2087.62l-47.1-104.99-42.72,104.99h89.83Z"/>
        <path d="M1799.34,2218.83l132.46-306.32,31.61.4,133.88,305.91h-46.01l-39.39-88.61-126.1-1.2-41.54,89.81h-44.91ZM1992.13,2087.62l-48.17-102.78-41.65,102.78h89.83Z"/>
        <path d="M2739.22,2087.62v131.21h-46.01v-302.89c0-.23,3.05-3.28,3.29-3.28h105.16c32.7,0,70.68,25.59,81,56.92,19.85,60.26-21.5,118.03-85.38,118.03h-58.06ZM2739.22,2046.07h64.63c1.29,0,14.38-5.92,16.75-7.34,27.79-16.68,26.71-64.29-3.19-78.37-2.38-1.12-16.7-6.14-17.94-6.14h-60.25v91.85Z"/>
        <path d="M3500.54,1914.85l91.99,207.77,89.85-207.77h44.91l-127.47,302.48c-2.11,5.34-10.51,5.03-13.91,1.56l-130.29-304.04h44.91Z"/>
      </g>
      <path d="M2767.7,1838.31v-232.91c0-.23,3.05-3.28,3.29-3.28h100.78c99.31,0,150.32,122.14,86.47,195.66-13.4,15.43-53.17,40.52-73.33,40.52h-117.21ZM2878.34,1634.93c-22.21-3-50.49,2.22-73.39,0v172.77h53.68c114.72,0,120.32-159.19,19.72-172.77Z"/>
      <path d="M3453.44,1838.31v-232.91c0-.23,3.05-3.28,3.29-3.28h100.78c97.78,0,150.39,117.99,88.67,193.48-14.04,17.16-53.25,42.71-75.52,42.71h-117.21ZM3490.69,1807.7h53.68c60.75,0,98.48-45.72,90.35-105.5-4.06-29.89-39.78-67.27-70.64-67.27h-73.39v172.77Z"/>
      <path d="M2169.59,1602.13v158.55c0,8.88,8.83,26.28,15.55,32.59,33.42,31.45,110.5,20.88,115.88-32.62,4.76-47.3-5.55-104.49-.09-150.98.26-2.2,1-7.54,3.4-7.54h33.96v154.18c0,106.51-186.57,118.21-203.52,12.9-5.41-33.59-6.52-125.61-2.53-159.53.26-2.2,1-7.54,3.4-7.54h33.96Z"/>
      <path d="M3089.76,1838.31l101.01-234.86c4.92-6.64,15.46-2.38,22.86-3.67l108.36,238.53h-37.24l-28.23-66.5c-32.97-2.31-67.59-1.85-101.07-.24l-28.44,66.74h-37.24ZM3170.82,1737.71h67.92l-33.98-78.74-33.94,78.74Z"/>
      <path d="M1667.88,1838.31h-36.15l-31.74-66.73-99.47-1.21-27.63,67.93h-37.24l103.98-238.53c7.4,1.28,17.93-2.97,22.87,3.67l105.39,234.87ZM1584.63,1737.71l-37.22-80.91-30.7,80.91h67.92Z"/>
      <path d="M1987.75,1617.43v39.36c-48.02-27.51-116.71-38.4-155.5,9.89-23.27,28.97-25.28,77.46-2.19,107.06,31.62,40.52,84.92,42.12,129.79,24.68,10.46-4.06,19.71-10.73,30.1-14.79v39.36c-35.8,15.47-75.45,23.92-114.46,16.94-102.2-18.3-134.02-149.57-53.09-213.71,48.85-38.71,110.94-29.35,165.36-8.8Z"/>
      <path d="M3856.56,1634.93v67.79h96.4v32.8h-96.4v72.17h102.97v30.62h-138.02v-236.19h132.55c4.95,0,4.95,32.8,0,32.8h-97.49Z"/>
      <path d="M1245.05,1634.93v63.42h92.02v30.62h-92.02v109.35h-37.24v-232.91c0-.23,3.05-3.28,3.29-3.28h122.69c4.95,0,4.95,32.8,0,32.8h-88.73Z"/>
      <polygon points="2526.7 1602.13 2526.7 1805.51 2631.87 1805.51 2631.87 1838.31 2491.65 1838.31 2491.65 1602.13 2526.7 1602.13"/>
      <path d="M2910.11,2376.29v-73.26c0-.23,3.05-3.28,3.29-3.28h32.86c1.3,0,13,3.61,15.13,4.58,20.34,9.19,26.44,37.26,14.47,55.59-3.19,4.88-17.57,16.37-23.03,16.37h-42.72ZM2923.25,2365.36c20.3,2.98,46.06-2.17,46.05-27.34,0-25.83-26.42-27.01-46.05-25.15v52.49Z"/>
      <path d="M3934.84,2300.26c55.57-10.21,72.48,58.69,26.82,74.89-60.96,21.63-76.31-65.8-26.82-74.89ZM3943.73,2311.14c-20.61,1.77-32.93,24.52-21.45,42.2,11.19,17.23,39.02,16.7,49.12-1.28,10.98-19.53-5.74-42.8-27.67-40.92Z"/>
      <path d="M3073.82,2300.24c65.78-13.42,71.39,79.75,10.56,78.3-48.87-1.17-53.07-69.63-10.56-78.3ZM3113.67,2338.57c0-15.42-12.52-27.91-27.96-27.91s-27.96,12.5-27.96,27.91,12.52,27.91,27.96,27.91,27.96-12.5,27.96-27.91Z"/>
      <path d="M2250.08,2300.28c31.12-5.31,53.85,12.11,51.06,44.42-4.01,46.58-86.53,45.51-81.17-11.06,1.43-15.11,15.05-30.79,30.1-33.36ZM2288.5,2338.72c0-15.33-12.45-27.76-27.82-27.76s-27.82,12.43-27.82,27.76,12.45,27.76,27.82,27.76,27.82-12.43,27.82-27.76Z"/>
      <path d="M2086.34,2376.29v-76.54h33.96c.73,0,11.95,3.21,13.63,3.89,25.09,10.2,31.32,46.78,10.5,63.94-1.68,1.38-14.49,8.71-15.37,8.71h-42.72ZM2099.49,2365.36c21.21,1.77,43.96-1.18,44-27.33.04-26.02-23.48-26.95-44-25.15v52.49Z"/>
      <path d="M3705.39,2299.75c19.94-2.61,53.97,2.31,44.3,30.02-2.47,7.09-9.48,9.75-9.24,10.43,1.11,3.12,26.4,34.12,24.08,36.09-4.09-.68-11.72,1.4-14.89-.44-6.51-3.79-14.18-36.69-31.11-30.16v30.62h-13.15v-76.54ZM3718.53,2332.56c26.08,2.37,26.56-22.89.02-21.88l-.02,21.88Z"/>
      <path d="M1411.55,2299.75v51.39c0,20.13,41.63,17.32,41.63,2.19v-53.58h13.15v53.58c0,1.51-5.01,11.09-6.55,13.14-12.75,17.04-48.91,15.27-57.5-3.89-3.77-8.4-6.72-58.52-1.82-61.88,2.7-1.85,7.79-.75,11.09-.96Z"/>
      <path d="M1965.84,2299.75v55.77c0,10.25,23.27,12.04,30.63,8.71,1.12-.51,8.8-8.09,8.8-8.71v-55.77h13.15v55.77c0,4.15-9.39,15.06-13.23,17.41-12.15,7.44-30.61,6.86-42.31-1.33-2.95-2.06-10.18-11.52-10.18-13.89v-57.95h13.15Z"/>
      <path d="M2848.76,2376.28c-15.91,1.36-10.87.51-15.6-9.53-1.58-3.36-4.43-10.84-7.75-11.98-2.6-.9-27.71-.84-28.93-.05-3.85,2.47-3.27,28.99-22.21,21.55,6.34-8.58,29.55-74.01,33.12-76.22,1.48-.91,5.38-.66,7.05.03,5.12,2.11,30.94,65.57,34.31,76.21ZM2822.47,2343.47l-9.85-21.84-9.86,21.85h19.71Z"/>
      <path d="M3343.89,2376.28c-19.26,7.33-13.7-18.22-23.35-21.5-3.55-1.21-27.87-1.06-29.45,1-6.81,8.83-1.63,24.99-21.68,20.49,5.77-9.01,29.39-74.69,34.21-76.34,2.35-.81,5.34-.47,7.49.85,3.85,2.36,28.89,65.8,32.79,75.5ZM3308.82,2321.62c-3.69-3.9-3.71,1.43-4.56,3.11-1.21,2.38-7.12,18.08-6.36,18.75h19.71c-3.94-3-7.98-21-8.79-21.86Z"/>
      <path d="M1660.22,2299.75c3.79,1.14,4.95,9.55,1.2,12.14-4.66,3.21-23.99-.29-30.79.97v19.69h30.68v10.93h-30.67v21.87h32.86v10.93h-46.01v-73.26c0-.23,3.05-3.28,3.29-3.28,8.49,0,33.66-1.73,39.44,0Z"/>
      <polygon points="1334.87 2299.75 1334.87 2312.87 1304.2 2312.87 1304.2 2332.55 1334.87 2332.55 1334.87 2343.49 1304.2 2343.49 1304.2 2365.36 1337.06 2365.36 1337.06 2376.29 1291.06 2376.29 1291.06 2299.75 1334.87 2299.75"/>
      <polygon points="3639.66 2299.75 3639.66 2312.87 3608.99 2312.87 3608.99 2332.55 3639.66 2332.55 3639.66 2343.49 3608.99 2343.49 3608.99 2365.36 3641.85 2365.36 3641.85 2376.29 3595.85 2376.29 3595.85 2299.75 3639.66 2299.75"/>
      <polygon points="2605.58 2299.75 2605.58 2312.87 2574.9 2312.87 2574.9 2332.55 2605.58 2332.55 2605.58 2343.49 2574.9 2343.49 2574.9 2365.36 2607.77 2365.36 2607.77 2376.29 2561.76 2376.29 2561.76 2299.75 2605.58 2299.75"/>
      <path d="M1766.46,2317.23c-1.19,1.27-29.91-15.48-30.61,1.02-.56,13.07,34.03,15.85,32.98,39.4-1.21,27.24-50.97,28.44-43.96-1.04,6.83,7.56,31.01,16.02,30.86,1.08-.17-15.97-41.87-18.32-29.73-46.97,6.62-15.63,45.37-16.84,40.46,6.51Z"/>
      <path d="M3527.92,2317.23c-1.56,1.75-17.55-12.7-26.32-3.31-9.9,10.61,11.64,17.57,17.42,22.06,10.65,8.26,17.38,18.2,9.81,31.38-10.31,17.94-47.25,14.21-40.31-10.75,6.04,8.67,29.6,14.5,30.75.97,1.2-13.99-48.19-22.32-28.32-49.92,8.97-12.46,43.77-12.27,36.97,9.58Z"/>
      <path d="M1223.13,2317.23c-1.83,2.06-14.43-11.47-24.98-4.17-14.57,10.08,18.53,22.02,23.58,28.79,6.02,8.08,7.45,16.57,2.32,25.5-10.18,17.72-47.35,13.91-40.31-10.75,6.4,8.42,31.01,15.5,30.86,1.08-.17-16.14-31.79-13.6-31.07-39.37.69-24.42,45.2-27.31,39.61-1.09Z"/>
      <path d="M2675.34,2300.11c3.06,1.9,16.66,43.61,21.15,49.93,7.98-8.33,15.43-42.5,21.89-48.13,3.69-3.21,7.76-2.22,12.06-2.15l-33.96,78.71-33.91-75.49c-2.12-5.3,11.52-3.64,12.76-2.87Z"/>
      <path d="M1891.35,2299.75c3.31,19.23-13.44,11.98-26.29,13.12v63.42h-13.15v-63.42c-5.85-1.02-19.96,1.93-24.2-.98-4.29-2.95-1.65-12.14,1.2-12.14h62.44Z"/>
      <polygon points="2465.36 2299.75 2465.36 2365.36 2500.41 2365.36 2500.41 2376.29 2452.21 2376.29 2452.21 2299.75 2465.36 2299.75"/>
      <rect x="3825.89" y="2299.75" width="13.15" height="76.54"/>
      <path d="M3628.7,2277.89c2.41,2.06-14.59,24.46-19.7,19.66-1.86-1.75,8.59-26.87,19.7-19.66Z"/>
      <g>
        <path d="M611.89,1529.96c15.07,3.59,30.85,4.57,46.09,7.57,88.29,17.43,192.21,72.12,250.8,141.1,1.83,2.15,11.37,13.66,9.82,15.32l-112.87,38.62c-56.07-49.55-124.57-82.36-199.6-90.82-318.73-35.93-514.6,343.05-300.91,582.48,185.36,207.69,526.91,123.31,600.76-140.49l119.96-42.06c-18.96,192.7-166.71,356.41-355.3,398.71-245.57,55.08-488.33-93.15-551.54-334.36l-13.3-70.92c1.62-29.23-2.19-60.72,0-89.66,15.95-210.98,204.94-399.59,416.26-415.51h89.83Z"/>
        <path d="M478.24,2096.37c-7.41-1.85-50.82-14.62-52.31-18.86l.11-105.43,296.63-105.21,12.48.41c97.94,35.87,196.54,70,294.83,104.76-.73,8.97,4.2,33.21-4.13,37.84l-296.94,106.23-243.52-87.04-7.16-.5v67.79ZM868.21,1987.04c-1.18-1.57-31.73-9.57-37.58-11.7-34.27-12.48-68.45-26.39-103.51-36.22-48.17,16.14-97,31.52-143.73,51.19l143.48,51.18c41.64-16.86,88.56-28.22,129.68-45.33,2.58-1.07,15.02-4.65,11.66-9.1Z"/>
      </g>
    </g>
  </g>
</svg>