<?xml version="1.0" encoding="UTF-8"?>
<svg xmlns="http://www.w3.org/2000/svg" version="1.1" xmlns:cc="http://creativecommons.org/ns#" xmlns:dc="http://purl.org/dc/elements/1.1/" xmlns:inkscape="http://www.inkscape.org/namespaces/inkscape" xmlns:rdf="http://www.w3.org/1999/02/22-rdf-syntax-ns#" xmlns:sodipodi="http://sodipodi.sourceforge.net/DTD/sodipodi-0.dtd" xmlns:svg="http://www.w3.org/2000/svg" viewBox="0 0 4096 4096">
  <!-- Generator: Adobe Illustrator 30.0.0, SVG Export Plug-In . SVG Version: 2.1.1 Build 123)  -->
  <g id="svg2" inkscape:export-filename="G:\Users\suitedoalex\sites\banco-do-brasil-logo-0.png" sodipodi:docname="banco-do-brasil-logo.svg">
    <g>
      <g>
        <rect x="483.58" y="1551.88" width="326.45" height="302.72"/>
        <rect x="907.62" y="1551.88" width="326.45" height="302.72"/>
        <g>
          <polygon points="1634.55 2305.31 1133.11 2305.31 907.62 1925.23 1259.31 1925.23 1629.53 2295.2 1634.55 2305.31"/>
          <polygon points="810.03 1925.23 590.67 2292.94 579.5 2305.31 89.83 2305.31 93.02 2290 458.34 1925.23 810.03 1925.23"/>
          <path d="M2667.74,2305.31h-136.3c-16.09-26.99-22.35-59.78-34.98-88.73-4.42-5.75-126.44-.31-144.6-1.61l-30.76,90.35h-137.98c40.92-121.64,89.54-241.47,134.04-362.16,10.17-17.85,22.39-32.17,42.86-37.89,22.36-6.25,92.61-6.15,116.71-2.7,40.97,5.87,51.75,35.82,65.66,68.92,45.61,108.5,80.21,224.8,125.36,333.83ZM2475.91,2130.41c-9.97-16.63-36.21-131.5-43.61-136.34-17.3-11.32-19.97,8.76-23.78,20.24-12.64,38.07-23.15,77.37-33.58,116.1h100.96Z"/>
          <path d="M3455.25,1901.69v267.4c0,1.14,4.93,18.33,5.98,20.93,15.69,38.65,76.66,38.68,92.36,0,1.05-2.6,5.98-19.79,5.98-20.93v-267.4h124.52v311.13c0,1.55-9.72,24.8-11.65,28.72-35.83,73.06-143.73,80.3-215.1,70.09-105.39-15.09-131.62-77.35-136.85-176.03-3.09-58.32-6.56-166.72-.03-222.3.4-3.39,1.53-11.6,5.22-11.6h129.57Z"/>
          <path d="M3037.93,2187.59v117.72h-134.62v-403.62h227.17c114.26,0,171.16,100.36,136.43,203.62-14.95,44.46-70,82.28-116.24,82.28h-112.74ZM3037.93,2096.77h65.63c1.27,0,20.55-8.81,23.06-10.58,22.05-15.58,21.3-67.02.56-83.66-5.67-4.55-31.04-13.38-37.09-13.38h-52.16v107.63Z"/>
          <path d="M2230.23,1901.69v94.18h-111.06v309.45h-132.93c-.36,0-5.05-4.69-5.05-5.05v-304.4h-111.06v-94.18h360.1Z"/>
          <rect x="1691.77" y="1905.05" width="134.62" height="400.26"/>
          <rect x="2698.03" y="1905.05" width="134.62" height="400.26"/>
        </g>
      </g>
      <g>
        <path d="M1918.93,2406.22c42.28,5.95,64.98,55.72,39.6,90.03-5.32,7.19-14.7,8.97-14.37,17.57,42.83,10.67,44.84,76.14,11.76,100.92-9.49,7.11-36.03,16.84-47.09,16.84h-92.55v-225.36c31.9,3.21,71.8-4.34,102.65,0ZM1843.21,2500.4h68.99c2.19,0,17.53-7.61,20.05-10.23,18.12-18.87,8.06-60.4-20.05-60.4h-68.99v70.63ZM1843.21,2608.03h58.89c6.47,0,31.02-6.24,36.56-10.55,18.04-14.06,18.16-54.96-3.65-66.06-2.28-1.16-21.61-7.47-22.81-7.47h-68.99v84.09Z"/>
        <path d="M3034.57,2406.22l26.22.74,128.59,177.52v-178.27h26.92v220.31c0,6-24.49,7.96-28.55,1.62-41.88-57.14-81.42-117.15-126.26-171.48v169.86c0,6.49-21.48,5.34-26.92,5.05v-225.36Z"/>
        <path d="M2095.62,2406.22l26.25.7,128.56,177.57v-178.27h26.92v220.31c0,6-24.49,7.96-28.55,1.62l-118.13-164.47-8.13-7.01v169.86c0,6.49-21.48,5.34-26.92,5.05v-225.36Z"/>
        <path d="M2885.74,2400.43c61.99-5.9,98.58,27.98,104.67,88.6,5.69,56.74-2.03,137.03-72.32,145.53-62.3,7.53-104.91-18.31-112.01-82.39-7.23-65.25-.2-144.14,79.67-151.74ZM2875.48,2427.16c-53.23,10.96-49.85,112.22-34.38,150.55,17.75,43.98,91.75,45.64,111.77,4.16,16.42-34,19.11-123.56-16.07-146.9-14.75-9.78-44.36-11.31-61.33-7.81Z"/>
        <path d="M2421.73,2406.55l81.08,225c-8.51-.88-22.51,3.03-28.68-3.25-8.2-8.35-16.52-52.64-24.8-65.28-4.29-5.58-78.06-.5-90.75-1.61-3.11,1.99-21.32,67.06-24.41,69.76-2.64,2.31-20.88-.73-26.53.38l80.41-223.26,33.68-1.75ZM2438.89,2537.39l-35.34-97.58-35.34,97.58h70.67Z"/>
        <path d="M3360.69,2406.55l81.08,225c-8.51-.88-22.51,3.03-28.68-3.25-8.2-8.35-16.52-52.64-24.8-65.28-4.29-5.58-78.06-.5-90.75-1.61-3.11,1.99-21.32,67.06-24.41,69.76-2.64,2.31-20.88-.73-26.53.38l80.38-223.35,33.71-1.65ZM3377.84,2537.39l-35.34-97.58-35.34,97.58h70.67Z"/>
        <path d="M2691.3,2463.38c-30.59,4.26-19.7-3.84-31.86-20.3-17.06-23.09-72-23.44-91.14-3.39-23.08,24.18-23.39,117.19-6.45,144.66,16.75,27.15,59.47,35.12,86.92,19.86,9.57-5.32,22.41-26.56,24.21-26.68,5.54-.36,18.41,8.95,18.35,15.29-.07,6.72-14.71,22.25-20.53,26.68-31.27,23.77-92.42,21.5-120.97-6.32-36.15-35.22-36.1-153.52-1.24-189.83,39.44-41.08,142.3-29.09,142.71,40.02Z"/>
        <polygon points="3499 2406.22 3499 2608.03 3599.96 2608.03 3599.96 2631.57 3472.07 2631.57 3472.07 2406.22 3499 2406.22"/>
        <rect x="2018.21" y="2406.22" width="26.92" height="225.36"/>
        <rect x="2735.05" y="2406.22" width="26.92" height="225.36"/>
      </g>
    </g>
  </g>
</svg>