<?xml version="1.0" encoding="UTF-8"?>
<svg xmlns="http://www.w3.org/2000/svg" version="1.1" xmlns:cc="http://creativecommons.org/ns#" xmlns:dc="http://purl.org/dc/elements/1.1/" xmlns:inkscape="http://www.inkscape.org/namespaces/inkscape" xmlns:rdf="http://www.w3.org/1999/02/22-rdf-syntax-ns#" xmlns:sodipodi="http://sodipodi.sourceforge.net/DTD/sodipodi-0.dtd" xmlns:svg="http://www.w3.org/2000/svg" viewBox="0 0 700 700">
  <!-- Generator: Adobe Illustrator 30.0.0, SVG Export Plug-In . SVG Version: 2.1.1 Build 123)  -->
  <defs>
    <style>
      .st0 {
        fill: #1d1d1b;
      }
    </style>
  </defs>
  <g id="svg8" inkscape:export-filename="C:\Users\alex\sites\petrobras-logo-0.png" sodipodi:docname="petrobras-logo.svg">
    <sodipodi:namedview id="base" bordercolor="#666666" borderopacity="1.0" fit-margin-bottom="0.5" fit-margin-left="0.5" fit-margin-right="0.5" fit-margin-top="0.5" inkscape:current-layer="g3045" inkscape:cx="1257.8275" inkscape:cy="537.608" inkscape:document-units="px" inkscape:pagecheckerboard="true" inkscape:pageopacity="0" inkscape:pageshadow="2" inkscape:window-height="838" inkscape:window-maximized="1" inkscape:window-width="1600" inkscape:window-x="-8" inkscape:window-y="-8" inkscape:zoom="0.24748737" pagecolor="#00ffff" showgrid="false" units="px"/>
    <g>
      <rect class="st0" x="496.66" y="352.15" width="0" height="8.84"/>
      <rect class="st0" x="496.66" y="332.65" width="0" height="11.37"/>
      <path class="st0" d="M383.4,353.72h-7.71l2.72-9.7h4.99v-11.37h-17.61s-12.11,42.33-12.11,42.33h0v6.38h14.2l4.73-16.97h4.91c2.99,0,4.83.34,5.87,1.13v-11.8h0Z"/>
      <path class="st0" d="M388.75,332.65h-5.35v11.37h2.45c3.78,0,5.97,1.65,5.01,5.07-.88,3.06-3.34,4.37-7.46,4.63v11.8h0c1.59,1.23,1.33,3.5.26,7.35-.08.26-.16.62-.26.88v7.61h14.82s.44-1.49.44-1.49c-1.93,0-1.06-2.09.69-8.49,2.81-9.79.1-11.01-4.55-12.94,6.14-1.57,10-6.28,11.57-11.88,2.72-9.44-1.41-13.91-17.62-13.91Z"/>
      <path class="st0" d="M439.51,370.07c-1.15.44-2.45.7-3.86.7-7.71,0-7.36-7.79-5.6-13.99,1.39-4.99,4.47-10.75,9.46-12.76v-11.81c-11.91,2.63-21.83,11.63-25.43,24.4-4.73,16.63,2.81,26.07,18.15,26.07,2.45,0,4.91-.26,7.28-.79v-11.81Z"/>
      <polygon class="st0" points="353.68 339.13 353.68 332.65 310.81 332.65 307.14 345.51 321.51 345.51 311.25 381.36 327.3 381.36 337.47 345.51 351.85 345.51 353.68 339.13"/>
      <rect class="st0" x="223.85" y="332.65" height="11.37"/>
      <path class="st0" d="M230.17,332.65h-6.32v11.37h.08c3.42,0,8.43.61,7.1,5.15-1.05,3.94-3.85,5.42-7.18,5.69v11.27c12.35-.79,19.72-7.17,22.43-17.05,2.9-9.97-2.09-16.45-16.12-16.45Z"/>
      <path class="st0" d="M206.67,332.65l-13.86,48.71h15.95l4.39-15.14h8.07c.88,0,1.75,0,2.63-.08v-11.27h-7.54s3.16-10.85,3.16-10.85h4.39v-11.37h-17.18Z"/>
      <polygon class="st0" points="246.99 381.36 287.77 381.36 291.01 369.99 266.28 369.99 268.48 362.38 288.56 362.38 291.8 351.01 271.64 351.01 273.65 344.02 297.49 344.02 300.65 332.65 260.93 332.65 246.99 381.36"/>
      <path class="st0" d="M381.99,381.36h1.41v-7.61c-1.05,3.85-1.49,6.64-1.41,7.61Z"/>
      <polygon class="st0" points="439.51 381.88 439.51 381.88 439.51 381.88 439.51 381.88"/>
      <polygon class="st0" points="355.53 332.65 353.68 332.65 353.68 339.13 355.53 332.65"/>
      <polygon class="st0" points="351.85 381.36 353.68 381.36 353.68 381.36 353.68 374.98 351.85 381.36"/>
      <polygon class="st0" points="580.04 381.36 580.04 379.87 579.07 381.36 580.04 381.36"/>
      <path class="st0" d="M580.04,347.42v-9.7h0c-2.11-3.4-7.54-5.07-17.44-5.07h-5.27v11.37h2.45c3.78,0,5.97,1.65,5.01,5.07-.88,3.06-3.34,4.37-7.46,4.63v11.8c1.59,1.23,1.33,3.5.28,7.35-.1.26-.18.62-.28.88v7.61h14.83l.44-1.49c-1.93,0-1.06-2.09.69-8.49,2.81-9.79.1-11.01-4.55-12.94,5.78-1.47,9.56-5.76,11.31-11.01Z"/>
      <polygon class="st0" points="604.32 364.83 609.41 355.92 609.41 334.32 609.41 334.32 580.04 379.87 580.04 381.36 594.76 381.36 598.36 374.98 609.41 374.98 609.41 364.83 604.32 364.83"/>
      <path class="st0" d="M690.23,346.82c1.33-8.49-2.88-15.4-16.48-15.4-12.19,0-22.61,5.15-25.59,15.58-5.27,18.52,24.19,13.47,22.17,20.9-.7,2.27-3.68,3.58-7.71,3.58-1.59,0-3.16-.44-4.22-1.23-1.13-.87-1.65-2.09-1.47-3.85h-15.35c-2.19,8.74,4.12,16.27,17,16.27s24.38-5.51,27.62-16.79c4.99-17.67-24.38-13.21-22.27-20.47.52-1.75,2.37-2.8,5.87-2.8,1.57,0,2.9.26,3.86.88,1.05.61,1.57,1.65,1.41,3.32h15.15Z"/>
      <polygon class="st0" points="610.46 332.65 609.41 334.32 609.41 355.92 614.22 347.34 614.4 364.83 609.41 364.83 609.41 374.98 614.32 374.98 614.4 381.36 630.35 381.36 626.67 332.65 610.46 332.65"/>
      <path class="st0" d="M580.3,346.56c1.05-3.68,1.05-6.64-.26-8.84h0v9.7c.08-.26.18-.52.26-.87Z"/>
      <path class="st0" d="M446.79,331.42c-2.45,0-4.91.26-7.28.79v11.81c1.23-.44,2.45-.7,3.78-.7,7.09-.18,7.79,6.82,5.96,13.47-1.85,6.38-5.01,11.45-9.74,13.29v11.81c11.67-2.62,21.83-11.37,25.69-25.1,3.68-12.86-.97-25.36-18.41-25.36Z"/>
      <path class="st0" d="M491.49,360.99h5.17v-8.84h-2.63l2.29-8.13h.34v-11.37h-13.06s-13.86,48.71-13.86,48.71h23.76c1.05,0,2.11,0,3.16-.1v-11.27h-7.71l2.54-9Z"/>
      <path class="st0" d="M525.69,381.36h16.04l4.81-16.97h4.91c2.99,0,4.83.34,5.87,1.13v-11.8h-7.71l2.72-9.7h4.99v-11.37h-17.71s-13.93,48.71-13.93,48.71Z"/>
      <polygon class="st0" points="496.66 332.65 496.66 332.65 496.66 332.65 496.66 332.65"/>
      <path class="st0" d="M506.92,332.65h-10.26v11.37h5.35c3.32,0,6.48.08,5.35,3.85-.8,2.88-3.52,4.29-6.66,4.29h-4.04v8.84h0c5.09.08,8.67.34,7.45,4.53-.95,3.42-3.85,4.39-7.45,4.47v11.27c11.05-.61,19.19-4.63,22.09-14.6,1.49-5.25-.08-9.8-4.99-11.11,3.68-2.01,7.97-5.6,9.38-10.67,2.8-9.62-5.25-12.24-16.22-12.24Z"/>
      <path class="st0" d="M555.93,381.36h1.39v-7.61c-1.05,3.85-1.49,6.64-1.39,7.61Z"/>
      <rect class="st0" x="14.65" y="284.33" width="132.1" height="31.91"/>
      <polygon class="st0" points="146.75 383.87 14.67 383.87 14.67 415.67 146.77 415.67 146.77 332.2 146.75 332.2 146.75 383.87"/>
      <path class="st0" d="M146.75,332.2h-27.56c4.4.08,10.7,1.16,13.16,7.69,1.69,4.5.39,9.03-1.31,11.88-1.47,2.47-5.17,6.33-9.43,7.48,2.23,0,4.81,1.77,4.99,5.68.05,1.11.65,16.35.65,16.35h-13.29l-.46-13.57c-.15-1.59.39-5.29-5.55-5.29h-8.18l-5.22,18.47h-14.3l14.14-48.7h-30.88c4.22.07,10.05,1.08,13.04,4.71,3.6,4.37,2.47,9.82,1.03,12.81-.28.59-2.55,4.55-6.46,6.35.34.1,3.49,2.11,4.57,5.43,1.52,4.68-.29,11.42-3.68,14.25-2.54,2.13-4.71,5.04-17.2,5.04h-28.83l14.09-48.6H14.67v51.67h132.08v-51.67Z"/>
      <path class="st0" d="M66.52,345.66c0-2.32-1.98-3.71-4.16-3.71h-11.03l-2.54,9h11.78c3.45,0,5.94-2.18,5.94-5.29Z"/>
      <path class="st0" d="M121.04,346.29c0-.95-.2-4.3-5.12-4.3h-10.41c-.05.28-3.03,10.9-3.03,10.9h10.6c5.99,0,7.95-4.37,7.95-6.59Z"/>
      <path class="st0" d="M61.14,366.76c.43-.79.72-3.06.08-4.14-.64-1.08-.9-2.34-5.56-2.34h-9.52s-3.04,10.51-3.04,10.51h10.59c5.96,0,6.89-3.04,7.46-4.03Z"/>
    </g>
  </g>
</svg>