<?xml version="1.0" encoding="UTF-8"?>
<svg id="Camada_1" xmlns="http://www.w3.org/2000/svg" version="1.1" viewBox="0 0 1000 503.4">
  <!-- Generator: Adobe Illustrator 30.0.0, SVG Export Plug-In . SVG Version: 2.1.1 Build 123)  -->
  <defs>
    <style>
      .st0 {
        fill: #1d1d1b;
      }
    </style>
  </defs>
  <path class="st0" d="M935.8,168.8h-94c-2.5,0-4.5,2-4.5,4.5v44.5c0,2.5,2,4.5,4.5,4.5h85.4c7.1,0,12.6,5.6,12.6,12.6v24.3c0,7.1-5.6,12.6-12.6,12.6h-43c-35.4,0-64.7,29.3-64.7,64.7v85.9c0,35.9,28.8,64.7,64.7,64.7h111.2c2.5,0,4.5-2,4.5-4.5v-249.1c.6-35.4-28.2-64.7-64.1-64.7h0ZM939.8,421c0,7.1-5.6,12.6-12.6,12.6h-34.4c-7.1,0-12.6-5.6-12.6-12.6v-82.4c0-7.1,5.6-12.6,12.6-12.6h34.4c7.1,0,12.6,5.6,12.6,12.6v82.4ZM421.3,168.8h-94c-2.5,0-4.5,2-4.5,4.5v44.5c0,2.5,2,4.5,4.5,4.5h85.4c7.1,0,12.6,5.6,12.6,12.6v24.3c0,7.1-5.6,12.6-12.6,12.6h-43c-35.4,0-64.7,29.3-64.7,64.7v.5c-6.1-9.6-13.6-18.7-22.7-27.3-20.2-18.7-60.1-31.8-98.6-44.5-60.1-19.7-122.3-40.4-124.8-85.4-1.5-26.3,14.2-49.5,46-68.2,23.3-14.2,55.1-25.8,94-34.4,43-9.6,66.2-12.1,80.4-13.1,1.5,0,3.5-.5,4.5-.5,5.1-.5,7.1-3,7.1-9.6l.5-49c0-2.5-2-5.1-5.1-5.1h-5.1c-7.1,0-73.3,1-151.6,29.8-41.4,15.3-73.8,36.5-96,62.3C9.3,119.8-1.8,152.6.2,189.5c4.5,82.4,93,111.2,164.3,134.4,35.9,11.6,67.2,21.7,82.9,36.9,18.2,17.2,19.7,38.4,4,57.6-7.1,8.6-18.2,17.7-47,19.7h-6.1c-51,0-123.8-37.4-126.9-38.9h-2.5c-2,0-4,1.5-5.1,3.5-.5,1-21.2,48.5-21.2,49-1,2-.5,3.5,0,4.5.5,1.5,1.5,3,3,3.5,15.2,7.1,94,43.5,151.1,43.5,2.5,0,5.1,0,7.6-.5,56.6-3.5,78.3-24.8,95.5-45.5,3.5-4.5,6.6-9.1,9.6-14.2,8.6,25.8,32.9,44.5,61.2,44.5h111.2c2.5,0,4.5-2,4.5-4.5v-249.5c-.3-35.4-29.1-64.7-65-64.7ZM425.3,421c0,7.1-5.6,12.6-12.6,12.6h-34.4c-7.1,0-12.6-5.6-12.6-12.6v-82.4c0-7.1,5.6-12.6,12.6-12.6h34.4c7.1,0,12.6,5.6,12.6,12.6v82.4Z"/>
  <circle class="st0" cx="758.9" cy="96" r="33.9"/>
  <path class="st0" d="M692.7,65.7h-51c-2.5,0-4.5,2-4.5,4.5v85.9c0,7.1-5.6,12.6-12.6,12.6h-43c-35.4,0-64.7,29.3-64.7,64.7v189c0,35.9,28.8,64.7,64.7,64.7h111.2c2.5,0,4.5-2,4.5-4.5V70.3c-.1-2.6-2.1-4.6-4.6-4.6h0ZM637.1,421c0,7.1-5.6,12.6-12.6,12.6h-34.4c-7.1,0-12.6-5.6-12.6-12.6v-185.5c0-7.1,5.6-12.6,12.6-12.6h34.4c7.1,0,12.6,5.6,12.6,12.6v185.5ZM784.7,168.8h-51.6c-2.5,0-4.5,2-4.5,4.5v309.8c0,2.5,2,4.5,4.5,4.5h51.6c2.5,0,4.5-2,4.5-4.5V173.4c0-2.6-2-4.6-4.5-4.6h0Z"/>
</svg>