<?xml version="1.0" encoding="UTF-8"?>
<svg id="Camada_1" xmlns="http://www.w3.org/2000/svg" version="1.1" viewBox="0 0 1615.75 2834.65">
  <!-- Generator: Adobe Illustrator 30.0.0, SVG Export Plug-In . SVG Version: 2.1.1 Build 123)  -->
  <defs>
    <style>
      .st0 {
        fill: #1d1d1b;
      }
    </style>
  </defs>
  <path class="st0" d="M1542.5,1285.03v-51.78H81.12v51.78h77.57v7.96h-77.57v43.79h77.57v7.96h-77.57v43.79h77.57v7.96h-77.57v43.79h77.57v7.96h-77.57v44.59h77.57v7.96h-77.57v43.79h77.57v7.96h-77.57v50.39h1461.38v-50.39h-77.45v-7.96h77.45v-43.79h-77.45v-7.96h77.45v-44.59h-77.45v-7.96h77.45v-43.79h-77.45v-7.96h77.45v-43.79h-77.45v-7.96h77.45v-43.79h-77.45v-7.96h77.45ZM438.08,1363.67l-74.87.38c10.92-37.43-54.23-45.43-66.7-7.85-7.79,23.47,26.79,26.49,35.85,30.03,27.57,10.77,66.22,11.83,83.05,37.27,15.9,24.03,8.22,62.25-8.9,86.34-9.31,13.09-24.96,23.99-41.48,32.48-16.54,8.51-42.78,14.89-72.34,14.89-52.98,0-110.63-7.18-105.84-83.2l.38-6.09,76.38.02c-5.02,24.19,12.49,38.25,38.43,36.82,14.64-.81,42.17-10.09,43.37-29.1,1.15-18.28-25.09-26.77-38.78-30.71-37.96-10.95-93.77-17.26-90.7-66.94,4.01-64.82,59.67-96.75,122.02-96.8,73.64-.05,113.9,17.12,100.12,82.46ZM663.69,1444.02h-119.53l-10.89,55.45h130.21l-12.62,51.14h-204.3l55.97-263.85h201.74l-9.61,51.99h-130.51l-8.63,52.26h119.7l-11.53,53.01ZM847.89,1550.61l-45.48-201.06h-.75l-44.09,201.06h-65.55l55.8-264.92h103.49l47.24,191.85h.75l40.21-191.85h67.67l-57.92,264.92h-101.36ZM1195.01,1550.61l-7.85-50.29h-105.54l-27.8,50.29h-76.5l160.61-263.85h90.48l50.13,263.85h-83.54ZM1380.89,1550.61h-75.51l56.06-263.85h75.51l-56.06,263.85Z"/>
  <polygon class="st0" points="1169.01 1337.73 1111.27 1448 1181.98 1448 1169.74 1337.73 1169.01 1337.73"/>
</svg>