<?xml version="1.0" encoding="UTF-8"?>
<svg xmlns="http://www.w3.org/2000/svg" version="1.1" xmlns:cc="http://creativecommons.org/ns#" xmlns:dc="http://purl.org/dc/elements/1.1/" xmlns:inkscape="http://www.inkscape.org/namespaces/inkscape" xmlns:rdf="http://www.w3.org/1999/02/22-rdf-syntax-ns#" xmlns:sodipodi="http://sodipodi.sourceforge.net/DTD/sodipodi-0.dtd" xmlns:svg="http://www.w3.org/2000/svg" viewBox="0 0 700 700">
  <!-- Generator: Adobe Illustrator 30.0.0, SVG Export Plug-In . SVG Version: 2.1.1 Build 123)  -->
  <defs>
    <style>
      .st0 {
        fill: #1d1d1b;
      }
    </style>
  </defs>
  <g id="svg2" inkscape:export-filename="G:\Users\suitedoalex\sites\senac-logo-0.png" sodipodi:docname="senac-logo.svg">
    <sodipodi:namedview id="namedview4" bordercolor="#666666" borderopacity="1" gridtolerance="10" guidetolerance="10" inkscape:current-layer="g10" inkscape:cx="253.44267" inkscape:cy="336.82364" inkscape:pageopacity="0" inkscape:pageshadow="2" inkscape:window-height="837" inkscape:window-maximized="1" inkscape:window-width="1600" inkscape:window-x="-8" inkscape:window-y="-8" inkscape:zoom="0.84100751" objecttolerance="10" pagecolor="#ffffff" showgrid="false"/>
    <g id="g10" inkscape:groupmode="layer" inkscape:label="senac-logo">
      <g id="g26" inkscape:export-filename="G:\Users\suitedoalex\sites\senac-logo-4.png" inkscape:export-xdpi="77.710739" inkscape:export-ydpi="77.710739">
        <g id="g28">
          <g id="g34">
            <path id="path36" class="st0" d="M438.19,210.6c-8.22-1.93-16.47-3.77-25.01-5.02-.32-.05-.68-.07-1-.12-12.13,8.95-23.29,18.84-33.34,29.46,11.13-1.63,22.5-2.67,34.1-3.09,40.52-1.49,79.05,5.16,113.83,17.81-25.09-17.28-55.36-30.9-88.59-39.04" inkscape:connector-curvature="0"/>
          </g>
          <g id="g38">
            <path id="path40" class="st0" d="M420.12,299.81c45.87-21.65,93.89-30.79,139.2-28.8-39.01-17.23-83.78-26.3-131.1-24.58-23.33.86-45.87,4.29-67.21,9.93-10.65,14.3-19.44,29.67-26.13,45.86,10.29,10.12,21.52,19.65,33.6,28.44,15.76-11.66,33.01-22.05,51.63-30.85" inkscape:connector-curvature="0"/>
          </g>
          <g id="g42">
            <path id="path44" class="st0" d="M361.01,256.37c-17.75,4.69-34.7,10.91-50.65,18.49,16.15,20.58,35.62,39.46,58.11,55.81h.02c-12.09-8.8-23.31-18.32-33.61-28.44,6.68-16.17,15.48-31.55,26.13-45.86" inkscape:connector-curvature="0"/>
          </g>
          <g id="g46">
            <path id="path48" class="st0" d="M368.51,330.68c-12.09-8.77-23.33-18.33-33.63-28.45-9.55,23.11-14.76,47.87-14.84,73.56,14-16.44,30.23-31.6,48.46-45.11" inkscape:connector-curvature="0"/>
          </g>
          <g id="g50">
            <path id="path52" class="st0" d="M596.61,470.41c-.56.01-1.12.03-1.69.03-23.27,0-40.15-14.9-40.15-35.42v-.46c0-19.63,16.91-35.01,38.49-35.01,1.16,0,2.27.04,3.35.1v-23.58c-1-.04-2.03-.04-3.07-.04-42.28,0-74.19,25.34-74.19,58.99v.43c0,32.83,32.35,58.54,73.65,58.54,1.26,0,2.41-.03,3.61-.06v-23.52Z" inkscape:connector-curvature="0"/>
          </g>
          <g id="g54">
            <path id="path56" class="st0" d="M169.17,420.99c-24.95-5.32-28.46-7.88-28.46-15.76v-.36c0-5.81,6.4-10.44,18.56-10.44,6.2,0,14.3,1.69,19.98,3.79v-25.15c-5.29-.92-13.4-1.96-19.56-1.96-29.5,0-50.51,14.41-50.51,36.2v.33c0,23.82,18.74,30.5,47.82,36.67,24.12,5.15,26.39,8.57,26.39,15.27v.34c0,7.03-7.84,11.31-20.83,11.31-16.49,0-27.42-5.65-40.41-14.57l-18.78,18.69c17.32,12.85,36.71,19.21,58.56,19.21,31.14,0,53-13.37,53-37.2v-.34c0-20.92-16.51-29.66-45.78-36.01" inkscape:connector-curvature="0"/>
          </g>
          <g id="g58">
            <path id="path60" class="st0" d="M266,388.28c-32.39,0-55,23.13-55,51.2v.36c0,30.1,24.69,50.84,58.11,50.84.96,0,4.07-.13,5.03-.15v-22.43c-.8.03-3.79.18-4.63.18-14.12,0-24.07-6.59-27.2-19.27h76.76c.18-2.58.4-4.23.4-6.99v-.35c0-27.9-16.33-53.41-53.47-53.41M241.91,431.61c2.49-12.66,11.01-20.94,24.09-20.94s21.58,8.45,23.45,20.94h-47.54Z" inkscape:connector-curvature="0"/>
          </g>
          <g id="g62">
            <path id="path64" class="st0" d="M419.56,436.79c0-26.61-16.27-47.38-50.69-47.38s-50.74,20.77-50.74,47.38v52.08h31.89v-54.01c.58-9.85,4.45-21.49,18.85-21.49s18.55,11.63,19.11,21.49v54.01h31.59v-52.08Z" inkscape:connector-curvature="0"/>
          </g>
          <g id="g66">
            <path id="path68" class="st0" d="M490.79,453.87c-2.74,14.38-17.59,16.54-20.95,16.71-24.01,1.27-24.86-15.15-16.79-20.15,10.85-6.73,37.84-2.94,37.84-2.94,0,.97.26,3.42-.1,6.38M471.41,388.84c-1.4,0-6.22.02-7.54.06v23.8c6.14.06,14.56,1.09,18.31,3.07,5.51,2.9,8.37,7.79,8.5,14.41-7.51-.88-16.03-1.48-23.41-1.67-30.12-.77-45.01,9.19-48.01,25.13-.06.3-.11.6-.16.9-.02.1-.03.21-.05.31-.23,1.52-.37,3.12-.37,4.82v.36c0,19.48,17.23,30.12,38.17,30.12,15.37,0,25.96-4.97,33.62-12.49v11.34h30.51v-57.76c0-26.63-15.15-42.39-49.58-42.39" inkscape:connector-curvature="0"/>
          </g>
        </g>
      </g>
    </g>
  </g>
</svg>