<?xml version="1.0" encoding="UTF-8"?>
<svg id="Camada_1" xmlns="http://www.w3.org/2000/svg" version="1.1" viewBox="0 0 612 792">
  <!-- Generator: Adobe Illustrator 30.0.0, SVG Export Plug-In . SVG Version: 2.1.1 Build 123)  -->
  <defs>
    <style>
      .st0 {
        fill: #1d1d1b;
      }
    </style>
  </defs>
  <path class="st0" d="M144.77,398.07c35-44.42,131.52-133.37,263.12-133.37,92.17,0,162,52.4,162.32,52.63h0c-52.02-25.3-257.7-66.43-419.58,83.31l-5.85-2.57h0Z"/>
  <path class="st0" d="M559.44,413.78c3.55,0,7.03.29,10.41.81v-28.6c-6.27-.86-12.97-1.28-20.22-1.28-50.28,0-88.25,30.1-88.25,70.36,0,2.75.18,5.44.51,8.05-7.37-12.4-23.74-18.71-47.03-23.51-29.65-6.02-33.75-8.65-33.16-15.18.57-6.22,10.53-11.94,25.39-11.94,9.51,0,22.23,2.25,33.56,7.54v-29.95c-10.92-3.34-22.85-5.57-35.73-5.57-37.42,0-62.53,17.93-64.52,42.55-.01.16-.02.31-.03.46-9.03-24.26-30.15-42.46-66.51-42.46-43.74,0-73.63,31.98-73.63,70.76,0,.99.03,1.97.07,2.94-8.22-17.86-29.68-26.09-58.65-32.41-34.2-7.34-39.08-10.71-39.08-18.51s8.74-13.87,22.37-13.58c10.59.22,16.91,2.76,19.82,3.8,8.45-10.48,17.53-20.54,27.16-30.08-14.32-5.22-29.96-7.91-46.83-7.91-40.68,0-69.1,20.35-69.1,50.96,0,23.48,12.28,34.16,33.76,41.47,1.16.36,4.52,1.41,6.47,2.04,7.4,2.15,15.7,4.05,24.82,6,33.56,7.2,36.36,13.26,36.36,19.92,0,7.84-9.34,12.53-24.96,12.53-17.87,0-34.41-5.26-51.72-16.46-8.87,12.01-18.03,25.18-22.91,33.27,21.67,11.8,46.96,19.09,73.49,19.15h.52c43.35-.06,70.68-18.78,72.09-49.39,9.17,27.92,34.88,46.07,69.63,46.07,6.69,0,16.29-.22,32.11-4.15v-29.75c-14.7,4.25-21.01,4.7-29.64,4.25-17.27-.89-31.37-10.63-35.42-27.69h104.49c.27-3.49.54-5.73.54-9.47v-.51c0-3.67-.2-7.32-.61-10.92,7.94,10.96,25.35,15.42,49.24,20.26,29.09,5.91,30.71,10.36,30.71,17.18,0,6.02-7.75,12.94-24.94,12.37-17.66-.59-38.33-5.84-54.3-14.87v34.35c16.66,7.45,37.78,12.1,54.19,12.1,39.36,0,66.37-23.05,66.37-47.97,0-.56-.02-1.09-.04-1.64,6.96,16.32,20.65,28.71,36.21,36.28,15.5,7.54,32.09,9.91,45.72,10.01,8.02.06,14.96-.53,21.65-1.59v-29.05c-3.37.54-6.86.82-10.41.82-29.12,0-52.75-18.33-52.75-40.92s23.63-40.93,52.75-40.93ZM240.61,444.61c3.49-17.2,15.43-28.41,33.79-28.41s30.29,11.47,32.91,28.41h-66.7Z"/>
  <path class="st0" d="M97.57,454.99c-10.58,12.29-31.42,41.01-39.75,54.81-8.2-4.78-12.52-7.87-16.37-10.83,12.66-13.85,32.04-34.28,47.9-46.58,0,0,7.25,2.24,8.21,2.61h0Z"/>
</svg>