<?xml version="1.0" encoding="UTF-8"?>
<svg id="Camada_1" xmlns="http://www.w3.org/2000/svg" version="1.1" viewBox="0 0 1615.75 2834.65">
  <!-- Generator: Adobe Illustrator 30.0.0, SVG Export Plug-In . SVG Version: 2.1.1 Build 123)  -->
  <defs>
    <style>
      .st0 {
        fill: #1d1d1b;
      }
    </style>
  </defs>
  <path class="st0" d="M1418.67,1254.11h96.33v-66.7H96.33v66.7h96.37v12.06h-96.37v64.84h96.37v12.07h-96.37v66.87h96.37v12.05h-96.37v67.96h96.37v12.05h-96.37v65.09h96.37v12.06h-96.37v66.09h1418.67v-66.09h-96.33v-12.06h96.33v-65.09h-96.33v-12.05h96.33v-67.96h-96.33v-12.05h96.33v-66.87h-96.33v-12.07h96.33v-64.84h-96.33v-12.06ZM547.23,1354.33h-94.67c3.24-13.25,1.1-23.19-5.92-30.29-6.55-7.1-18.07-10.89-34.16-10.89-21.78,0-43.71,14.21-47.34,31.24-5.28,25.09,23.27,33.13,46.94,39.76,54.2,14.67,136.25,20.35,116.68,112.66-15.31,71.95-93.57,106.11-172.62,106.11s-144.69-23.27-126.39-116.05h94.67c-7.26,32.19,12.62,49.7,46.71,49.7,21.85,0,52.15-11.36,56.96-34.08,9.86-46.39-62.32-36.45-129.7-69.11-31.32-15.15-41.66-46.39-33.85-83.31,20.99-80.95,96.72-103.19,168.2-103.19s137.59,25.09,114.47,107.45ZM851.37,1390.78l-14.04,66.27h-152.43l-15.38,72.42h165.68l-14.12,66.27h-260.35l72.66-341.77h260.35l-14.12,66.27h-165.68l-14.99,70.53h152.43ZM1204.73,1354.33h-94.67c3.23-13.25,1.11-23.19-5.92-30.29-6.55-7.1-18.07-10.89-34.16-10.89-21.77,0-43.71,14.21-47.33,31.24-5.29,25.09,23.27,33.13,46.94,39.76,54.2,14.67,136.25,20.35,116.68,112.66-15.31,71.95-93.57,106.11-172.62,106.11s-144.69-23.27-126.39-116.05h94.67c-7.26,32.19,12.63,49.7,46.71,49.7,21.85,0,52.15-11.36,56.96-34.08,9.86-46.39-62.32-36.45-129.7-69.11-31.32-15.15-41.65-46.39-33.84-83.31,20.98-80.95,96.72-103.19,168.2-103.19s137.59,25.09,114.47,107.45ZM1311.94,1595.75h-94.67l72.66-341.77h94.67l-72.66,341.77Z"/>
</svg>